<svg width="36" height="36" viewBox="0 0 36 36" fill="none" xmlns="http://www.w3.org/2000/svg">
<path d="M0 5C0 2.23858 2.23858 0 5 0H31C33.7614 0 36 2.23858 36 5V31C36 33.7614 33.7614 36 31 36H5C2.23858 36 0 33.7614 0 31V5Z" fill="#454B57"/>
<path d="M17.4285 5.09639C10.9754 5.79266 5.78486 10.9451 5.08344 17.2116C4.38202 23.7566 8.1697 29.6053 13.9213 31.8334C14.3422 31.9727 14.7631 31.6942 14.7631 31.1372V28.9091C14.7631 28.9091 14.2019 29.0483 13.5005 29.0483C11.5365 29.0483 10.6948 27.3773 10.5545 26.4025C10.4142 25.8454 10.1337 25.4277 9.71282 25.0099C9.29197 24.8707 9.15169 24.8707 9.15169 24.7314C9.15169 24.4529 9.57254 24.4529 9.71282 24.4529C10.5545 24.4529 11.2559 25.4277 11.5365 25.8454C12.2379 26.9595 13.0796 27.238 13.5005 27.238C14.0616 27.238 14.4825 27.0987 14.7631 26.9595C14.9033 25.9847 15.3242 25.0099 16.1659 24.4529C12.9394 23.7566 10.5545 21.9463 10.5545 18.8827C10.5545 17.3509 11.2559 15.8191 12.2379 14.705C12.0977 14.4265 11.9574 13.7302 11.9574 12.7554C11.9574 12.1984 11.9574 11.3629 12.3782 10.5273C12.3782 10.5273 14.3422 10.5273 16.3062 12.3377C17.0076 12.0592 17.9896 11.9199 18.9716 11.9199C19.9536 11.9199 20.9356 12.0592 21.7773 12.3377C23.601 10.5273 25.7052 10.5273 25.7052 10.5273C25.9858 11.3629 25.9858 12.1984 25.9858 12.7554C25.9858 13.8695 25.8455 14.4265 25.7052 14.705C26.6872 15.8191 27.3886 17.2116 27.3886 18.8827C27.3886 21.9463 25.0038 23.7566 21.7773 24.4529C22.619 25.1492 23.1801 26.4025 23.1801 27.6558V31.2764C23.1801 31.6942 23.601 32.1119 24.1621 31.9727C29.3526 29.8839 33 24.8707 33 19.0219C33 10.6666 25.8455 4.1216 17.4285 5.09639Z" fill="#343841"/>
<path d="M16.4285 4.09639C9.97538 4.79266 4.78486 9.94511 4.08344 16.2116C3.38202 22.7566 7.1697 28.6053 12.9213 30.8334C13.3422 30.9727 13.7631 30.6942 13.7631 30.1372V27.9091C13.7631 27.9091 13.2019 28.0483 12.5005 28.0483C10.5365 28.0483 9.69481 26.3773 9.55453 25.4025C9.41424 24.8454 9.13367 24.4277 8.71282 24.0099C8.29197 23.8707 8.15169 23.8707 8.15169 23.7314C8.15169 23.4529 8.57254 23.4529 8.71282 23.4529C9.55453 23.4529 10.2559 24.4277 10.5365 24.8454C11.2379 25.9595 12.0796 26.238 12.5005 26.238C13.0616 26.238 13.4825 26.0987 13.7631 25.9595C13.9033 24.9847 14.3242 24.0099 15.1659 23.4529C11.9394 22.7566 9.55453 20.9463 9.55453 17.8827C9.55453 16.3509 10.2559 14.8191 11.2379 13.705C11.0977 13.4265 10.9574 12.7302 10.9574 11.7554C10.9574 11.1984 10.9574 10.3629 11.3782 9.52735C11.3782 9.52735 13.3422 9.52735 15.3062 11.3377C16.0076 11.0592 16.9896 10.9199 17.9716 10.9199C18.9536 10.9199 19.9356 11.0592 20.7773 11.3377C22.601 9.52735 24.7052 9.52735 24.7052 9.52735C24.9858 10.3629 24.9858 11.1984 24.9858 11.7554C24.9858 12.8695 24.8455 13.4265 24.7052 13.705C25.6872 14.8191 26.3886 16.2116 26.3886 17.8827C26.3886 20.9463 24.0038 22.7566 20.7773 23.4529C21.619 24.1492 22.1801 25.4025 22.1801 26.6558V30.2764C22.1801 30.6942 22.601 31.1119 23.1621 30.9727C28.3526 28.8839 32 23.8707 32 18.0219C32 9.6666 24.8455 3.1216 16.4285 4.09639Z" fill="white"/>
</svg>
