<svg width="36" height="36" viewBox="0 0 36 36" fill="none" xmlns="http://www.w3.org/2000/svg">
<path d="M0 5C0 2.23858 2.23858 0 5 0H31C33.7614 0 36 2.23858 36 5V31C36 33.7614 33.7614 36 31 36H5C2.23858 36 0 33.7614 0 31V5Z" fill="#0277BD"/>
<path d="M28.0998 8H18.9998V12H23.8998L23.5998 16H18.9998V20H23.3998L23.0998 24.5L18.9998 25.9V30.1L26.8998 27.5L27.5998 16L28.0998 8Z" fill="#01598E"/>
<path d="M18.9998 8V12H10.0998L9.7998 8H18.9998ZM14.3998 16L14.5998 20H18.9998V16H14.3998ZM14.7998 22H10.7998L11.0998 27.5L18.9998 30.1V25.9L14.8998 24.5L14.7998 22Z" fill="#01598E"/>
<path d="M27.0998 7H17.9998V11H22.8998L22.5998 15H17.9998V19H22.3998L22.0998 23.5L17.9998 24.9V29.1L25.8998 26.5L26.5998 15L27.0998 7Z" fill="white"/>
<path d="M17.9998 7V11H9.0998L8.7998 7H17.9998ZM13.3998 15L13.5998 19H17.9998V15H13.3998ZM13.7998 21H9.7998L10.0998 26.5L17.9998 29.1V24.9L13.8998 23.5L13.7998 21Z" fill="#EEEEEE"/>
</svg>
