<svg width="36" height="36" viewBox="0 0 36 36" fill="none" xmlns="http://www.w3.org/2000/svg">
<path d="M36 31C36 33.762 33.762 36 31 36H5C2.239 36 0 33.762 0 31V5C0 2.238 2.239 0 5 0H31C33.762 0 36 2.238 36 5V31Z" fill="#1976D2"/>
<path d="M29.942 13.9022C29.9841 13.7713 30.0043 13.65 29.9988 13.5417C29.985 13.2279 29.7568 13 29.2196 13H26.8198C26.2139 13 25.9343 13.3467 25.7712 13.6942C25.7712 13.6942 24.2752 16.6053 22.551 18.525C21.9918 19.0805 21.7077 19.0667 21.4052 19.0667C21.2429 19.0667 20.8332 18.8812 20.8332 18.3725V13.8788C20.8332 13.2773 20.6746 13 20.1622 13H15.9006C15.5276 13 15.3332 13.2773 15.3332 13.5555C15.3332 14.1336 16.1564 14.2723 16.2499 15.8921V19.032C16.2499 19.7947 16.1096 19.9333 15.8071 19.9333C14.9913 19.9333 13.3853 17.3333 12.3101 13.9256C12.0773 13.2548 11.8444 13 11.2385 13H8.81582C8.11642 13 8 13.3241 8 13.6708C8 14.2957 8.54999 17.6739 11.552 21.5583C13.7291 24.375 16.5973 26 19.1364 26C20.6746 26 20.8322 25.6299 20.8322 25.0519V22.4761C20.8332 21.7819 21.0009 21.6667 21.4904 21.6667C21.8396 21.6667 22.5519 21.8833 23.9269 23.4C25.5127 25.1489 25.8005 26 26.7098 26H29.1096C29.667 26 29.9869 25.779 29.9997 25.35C30.0025 25.2408 29.986 25.1186 29.9484 24.9825C29.7705 24.4833 28.9547 23.2631 27.9372 22.1C27.3735 21.4561 26.8171 20.8182 26.5613 20.4715C26.3899 20.2453 26.3248 20.0859 26.3331 19.9333C26.3413 19.773 26.4293 19.6205 26.5613 19.4073C26.5375 19.4073 29.6395 15.2897 29.942 13.9022Z" fill="#13589D"/>
<path d="M28.942 12.9022C28.9841 12.7713 29.0043 12.65 28.9988 12.5417C28.985 12.2279 28.7568 12 28.2196 12H25.8198C25.2139 12 24.9343 12.3467 24.7712 12.6942C24.7712 12.6942 23.2752 15.6053 21.551 17.525C20.9918 18.0805 20.7077 18.0667 20.4052 18.0667C20.2429 18.0667 19.8332 17.8812 19.8332 17.3725V12.8788C19.8332 12.2773 19.6746 12 19.1622 12H14.9006C14.5276 12 14.3332 12.2773 14.3332 12.5555C14.3332 13.1336 15.1564 13.2723 15.2499 14.8921V18.032C15.2499 18.7947 15.1096 18.9333 14.8071 18.9333C13.9913 18.9333 12.3853 16.3333 11.3101 12.9256C11.0773 12.2548 10.8444 12 10.2385 12H7.81582C7.11642 12 7 12.3241 7 12.6708C7 13.2957 7.54999 16.6739 10.552 20.5583C12.7291 23.375 15.5973 25 18.1364 25C19.6746 25 19.8322 24.6299 19.8322 24.0519V21.4761C19.8332 20.7819 20.0009 20.6667 20.4904 20.6667C20.8396 20.6667 21.5519 20.8833 22.9269 22.4C24.5127 24.1489 24.8005 25 25.7098 25H28.1096C28.667 25 28.9869 24.779 28.9997 24.35C29.0025 24.2408 28.986 24.1186 28.9484 23.9825C28.7705 23.4833 27.9547 22.2631 26.9372 21.1C26.3735 20.4561 25.8171 19.8182 25.5613 19.4715C25.3899 19.2453 25.3248 19.0859 25.3331 18.9333C25.3413 18.773 25.4293 18.6205 25.5613 18.4073C25.5375 18.4073 28.6395 14.2897 28.942 12.9022Z" fill="white"/>
</svg>
