<svg width="11" height="11" viewBox="0 0 11 11" fill="none" xmlns="http://www.w3.org/2000/svg">
<path fill-rule="evenodd" clip-rule="evenodd" d="M7.11908 4.74613L5.9213 3.54835L6.78708 2.68213L7.98441 3.87947L7.11908 4.74613ZM4.03508 7.83324L2.71196 7.95369L2.8293 6.63991L5.32574 4.14347L6.52396 5.34169L4.03508 7.83324ZM8.62352 3.26124L8.62308 3.2608L7.40619 2.04391C7.07685 1.71547 6.51108 1.69991 6.19908 2.01324L2.20085 6.01147C2.05596 6.15591 1.96619 6.34791 1.94752 6.55102L1.77908 8.40435C1.76752 8.53547 1.81419 8.66524 1.90752 8.75858C1.99152 8.84258 2.10485 8.8888 2.22174 8.8888C2.23552 8.8888 2.24885 8.88835 2.26219 8.88702L4.11552 8.71858C4.31908 8.69991 4.51063 8.61058 4.65508 8.46613L8.65374 4.46747C8.9773 4.14302 8.96352 3.60169 8.62352 3.26124Z" fill="#EEF6FF"/>
</svg>
