<svg width="36" height="36" viewBox="0 0 36 36" fill="none" xmlns="http://www.w3.org/2000/svg">
<path d="M0 5C0 2.23858 2.23858 0 5 0H31C33.7614 0 36 2.23858 36 5V31C36 33.7614 33.7614 36 31 36H5C2.23858 36 0 33.7614 0 31V5Z" fill="#E65100"/>
<path d="M19 20V16H27.6L26.9 27.5L19 30.1V25.9L23.1 24.5L23.4 20H19ZM27.9 12L28.2 8H19V12H27.9Z" fill="#AC3D00"/>
<path d="M19 25.9V30.1L11.1004 27.5L10.7004 22H14.7004L14.9004 24.5L19 25.9ZM14.1004 12H19V8H9.90039L10.6004 20H19V16H14.4004L14.1004 12Z" fill="#AC3D00"/>
<path d="M18 19V15H26.6L25.9 26.5L18 29.1V24.9L22.1 23.5L22.4 19H18ZM26.9 11L27.2 7H18V11H26.9Z" fill="white"/>
<path d="M18 24.9V29.1L10.1004 26.5L9.70039 21H13.7004L13.9004 23.5L18 24.9ZM13.1004 11H18V7H8.90039L9.60039 19H18V15H13.4004L13.1004 11Z" fill="#EEEEEE"/>
</svg>
