<svg width="36" height="36" viewBox="0 0 36 36" fill="none" xmlns="http://www.w3.org/2000/svg">
<path d="M0 5C0 2.23858 2.23858 0 5 0H31C33.7614 0 36 2.23858 36 5V31C36 33.7614 33.7614 36 31 36H5C2.23858 36 0 33.7614 0 31V5Z" fill="#C60C30"/>
<path d="M19 32C26.1797 32 32 26.1797 32 19C32 11.8203 26.1797 6 19 6C18.1145 6 17.2497 6.08854 16.414 6.25722V19.6296C16.414 21.2047 17.7334 22.4815 19.3611 22.4815C20.9888 22.4815 22.3083 21.2047 22.3083 19.6296C22.3083 18.142 21.1311 16.9204 19.629 16.7894V14.7104C22.3159 14.8452 24.4516 16.9961 24.4516 19.6296C24.4516 22.3502 22.1725 24.5556 19.3611 24.5556C16.636 24.5556 14.4046 22.4937 14.2706 19.8889V6.88705C13.905 7.02989 13.5475 7.1888 13.1989 7.36291V19.3704C13.1989 22.6254 15.997 25.5235 19.3608 25.5235C22.7246 25.5235 25.4516 22.8847 25.4516 19.6297C25.4516 16.4616 22.8684 13.8773 19.629 13.7415V11.5967C24.0921 11.7336 27.6667 15.2777 27.6667 19.6296C27.6667 24.0684 23.9482 27.6667 19.3611 27.6667C14.7741 27.6667 11.0556 24.0684 11.0556 19.6296C11.0556 19.609 11.0556 19.5885 11.0558 19.5679C11.0561 19.5336 11.0565 19.4993 11.0573 19.4651C11.058 19.4321 11.0588 19.3991 11.0599 19.3661L11.0556 19.3704V8.70913C7.98029 11.0867 6 14.8121 6 19C6 26.1797 11.8203 32 19 32Z" fill="#940924"/>
<path d="M18 31C25.1797 31 31 25.1797 31 18C31 10.8203 25.1797 5 18 5C17.1145 5 16.2497 5.08854 15.414 5.25722V18.6296C15.414 20.2047 16.7334 21.4815 18.3611 21.4815C19.9888 21.4815 21.3083 20.2047 21.3083 18.6296C21.3083 17.142 20.1311 15.9204 18.629 15.7894V13.7104C21.3159 13.8452 23.4516 15.9961 23.4516 18.6296C23.4516 21.3502 21.1725 23.5556 18.3611 23.5556C15.636 23.5556 13.4046 21.4937 13.2706 18.8889V5.88705C12.905 6.02989 12.5475 6.1888 12.1989 6.36291V18.3704C12.1989 21.6254 14.997 24.5235 18.3608 24.5235C21.7246 24.5235 24.4516 21.8847 24.4516 18.6297C24.4516 15.4616 21.8684 12.8773 18.629 12.7415V10.5967C23.0921 10.7336 26.6667 14.2777 26.6667 18.6296C26.6667 23.0684 22.9482 26.6667 18.3611 26.6667C13.7741 26.6667 10.0556 23.0684 10.0556 18.6296C10.0556 18.609 10.0556 18.5885 10.0558 18.5679C10.0561 18.5336 10.0565 18.4993 10.0573 18.4651C10.058 18.4321 10.0588 18.3991 10.0599 18.3661L10.0556 18.3704V7.70913C6.98029 10.0867 5 13.8121 5 18C5 25.1797 10.8203 31 18 31Z" fill="white"/>
</svg>
