<svg width="14" height="14" viewBox="0 0 14 14" fill="none" xmlns="http://www.w3.org/2000/svg">
<path fill-rule="evenodd" clip-rule="evenodd" d="M12.25 11.5C12.25 11.9132 11.914 12.25 11.5 12.25H10V10C10 9.586 9.66475 9.25 9.25 9.25H4.75C4.33525 9.25 4 9.586 4 10V12.25H2.5C2.086 12.25 1.75 11.9132 1.75 11.5V2.5C1.75 2.08675 2.086 1.75 2.5 1.75H4V5.5C4 5.914 4.33525 6.25 4.75 6.25H7.75C8.16475 6.25 8.5 5.914 8.5 5.5C8.5 5.086 8.16475 4.75 7.75 4.75H5.5V1.75H7.879C8.07625 1.75 8.269 1.83025 8.40925 1.96975L12.0302 5.59075C12.172 5.7325 12.25 5.9215 12.25 6.12175V11.5ZM5.5 12.25H8.5V10.75H5.5V12.25ZM13.0908 4.53025L9.46975 0.90925C9.04525 0.484 8.47975 0.25 7.879 0.25H2.5C1.2595 0.25 0.25 1.2595 0.25 2.5V11.5C0.25 12.7405 1.2595 13.75 2.5 13.75H4.75H9.25H11.5C12.7405 13.75 13.75 12.7405 13.75 11.5V6.12175C13.75 5.52025 13.5153 4.95475 13.0908 4.53025V4.53025Z" fill="#EEF6FF"/>
</svg>
