<svg width="36" height="36" viewBox="0 0 36 36" fill="none" xmlns="http://www.w3.org/2000/svg">
<path d="M0 5C0 2.23858 2.23858 0 5 0H31C33.7614 0 36 2.23858 36 5V31C36 33.7614 33.7614 36 31 36H5C2.23858 36 0 33.7614 0 31V5Z" fill="#CE4549"/>
<path d="M25.1534 4.0002C25.1126 4.00178 25.0809 4.01315 25.0596 4.0334L21.345 8.44548L20.5873 11.0509C20.0723 11.0339 19.5406 11.0275 18.9956 11.0275C15.1349 11.0275 12 11.4365 12 11.9435C12 13.1535 25.9892 13.1535 25.9892 11.9435C25.9892 11.5685 24.3145 11.2517 21.8997 11.1017L22.4993 8.9572L25.9736 4.77754L25.9795 4.77168C26.0575 4.69068 25.9052 4.44757 25.6572 4.23458C25.4712 4.07408 25.2757 3.99547 25.1534 4.0002ZM20.3021 12.0763L20.2885 12.1173C20.2825 12.1223 20.2826 12.1289 20.2826 12.1349C20.2826 12.2099 20.5855 12.2716 20.9544 12.2716C21.3234 12.2716 21.6282 12.2099 21.6282 12.1349L21.6399 12.088C21.7369 12.123 21.7903 12.1631 21.7903 12.2091C21.7903 12.3301 21.4156 12.429 20.9486 12.424C20.4946 12.424 20.1186 12.3321 20.1186 12.2111C20.1186 12.1591 20.1932 12.1113 20.3021 12.0763ZM25.9111 12.4201C24.0603 13.4071 13.9497 13.4137 12.0918 12.4337L12.914 19.6661C13.271 18.5131 14.1738 16.9565 15.3357 16.4845C15.7167 16.3285 16.1035 16.3292 16.4665 16.5372C16.7815 16.7102 17.0478 17.0729 17.0778 17.2169C17.1508 17.5919 16.9573 17.7403 16.8063 17.7403C16.6243 17.7403 16.4852 17.4764 16.3942 17.3204C16.1462 16.8994 15.7708 16.8813 15.3709 17.1583C14.9529 17.4463 14.5898 17.9307 14.3358 18.3517C14.0268 18.8587 13.7662 19.4177 13.6093 19.9767C13.5183 20.2997 13.4351 20.8171 13.5741 21.1231C13.6351 21.2501 13.725 21.3302 13.871 21.3302C14.1739 21.3302 14.614 20.9501 14.826 20.7481C15.098 20.4891 15.4488 20.0853 15.5818 19.8263L15.8982 18.9337C16.0552 18.5417 16.4958 18.6107 16.4958 18.9337C16.4958 19.5217 16.2733 19.7177 15.8923 20.9337C15.5413 22.0577 15.4314 22.422 15.4314 22.422C15.3894 22.583 15.2256 22.8536 15.0506 22.8536C14.9776 22.8536 14.9243 22.8293 14.8943 22.7833C14.8333 22.7023 14.8395 22.48 14.8455 22.422C14.8575 22.238 15.2259 21.1418 15.2869 20.9688C15.1659 21.0958 15.0392 21.2237 14.9002 21.3497C14.5732 21.6437 14.0475 22.0294 13.5995 22.0294C13.3935 22.0294 13.2617 21.9767 13.1347 21.8907L13.5936 26.4786C13.7146 26.7666 15.9664 27.4649 18.9311 27.4649C21.9019 27.4649 24.1517 26.7616 24.2667 26.4786L24.9268 21.0274C24.5818 21.3274 24.1833 21.6969 23.7414 21.8809C23.4144 22.0139 22.6887 22.0989 22.6887 21.5509C22.6887 21.2509 23.2397 20.6986 23.5597 20.3126C23.6447 20.2146 23.8429 19.9728 23.8429 19.8458C23.8429 19.6788 23.4809 19.7174 23.1359 19.9884C22.9419 20.1444 22.7596 20.3529 22.6086 20.5489C22.3486 20.8949 22.21 21.1935 22.095 21.4415C21.72 22.2595 21.8472 21.9371 21.5442 22.7091C21.2413 23.4761 21.2908 23.3887 21.2298 23.5157C21.1758 23.6257 21.0966 23.7185 20.9876 23.7755C20.8727 23.8335 20.7155 23.8269 20.6185 23.7579C20.5645 23.7229 20.5385 23.648 20.5385 23.545C20.5385 23.493 20.546 23.4407 20.558 23.3887C20.649 23.0367 21.0302 22.3462 21.4661 21.4122C21.5631 21.1992 21.526 21.2624 21.513 21.2794C21.138 21.6254 20.8529 21.7928 20.642 21.8848C20.291 22.0348 19.8551 22.0345 19.7651 21.6485C19.7591 21.6255 19.7594 21.6012 19.7534 21.5782C19.0394 22.1082 18.2835 22.2524 18.5445 21.1114C18.2665 21.5844 17.7811 21.9708 17.1871 21.9708C16.9391 21.9708 16.7576 21.8908 16.6676 21.6778C16.5286 21.3608 16.746 20.8178 16.945 20.3048C17.048 20.0458 17.1886 19.7342 17.3766 19.3712C17.4736 19.1752 17.6295 19.0594 17.8355 19.1114C17.8715 19.1234 17.9032 19.1354 17.9332 19.1524C18.0902 19.2564 18.0297 19.4105 17.9508 19.5665C17.7208 19.9985 17.5213 20.3157 17.3883 20.7657C17.3343 20.9557 17.2661 21.2852 17.4781 21.2852C17.6231 21.2852 17.7621 21.2386 17.8961 21.1466C18.174 20.9506 18.3979 20.6572 18.5679 20.3692C18.6889 20.1622 18.8347 19.8913 18.9077 19.6603C18.9377 19.5623 18.9751 19.4699 19.0171 19.3829C19.0841 19.2389 19.1735 19.0899 19.3315 19.0899C19.4105 19.0899 19.4759 19.1189 19.5249 19.1759C19.6278 19.3029 19.6052 19.4334 19.5502 19.5724C19.4293 19.8954 19.2663 20.1842 19.1323 20.5352C19.0533 20.7372 18.9683 20.9961 18.9683 21.2091C18.9683 21.4051 19.1924 21.3584 19.3803 21.2774C19.5253 21.2144 19.6704 21.1176 19.7924 21.0196C19.8654 20.7376 19.8461 20.8 21.39 17.088C21.469 16.898 21.6141 16.8165 21.7591 16.8165C21.8321 16.8165 21.8914 16.841 21.9524 16.881C22.0554 16.956 22.0569 17.1154 22.0149 17.2364C21.9729 17.3464 21.9775 17.3119 21.7415 17.8419C21.4265 18.5389 21.2217 19.0417 20.9427 19.6817C20.8277 19.9467 20.4774 20.7709 20.4174 20.9669C20.3814 21.0939 20.3379 21.3009 20.4779 21.3009C20.8049 21.3009 21.6463 20.5454 21.8763 20.3204C21.8883 20.3034 21.9069 20.2972 21.9309 20.2852C21.9669 20.1752 22.0025 20.0728 22.0325 19.9688C22.1175 19.7498 22.1967 19.4945 22.3547 19.3165C22.4027 19.2585 22.4568 19.2247 22.5168 19.2247C22.6858 19.2247 22.7707 19.2932 22.7707 19.4552C22.7707 19.5182 22.7293 19.7496 22.7043 19.8126C22.7893 19.7266 22.8788 19.6408 22.9758 19.5548C23.8837 18.7538 24.5304 19.1625 24.5304 19.5665C24.5304 19.9925 23.9924 20.5852 23.6964 20.9142C23.5994 21.0241 23.3997 21.2253 23.3937 21.2833C23.3937 21.3583 23.4475 21.3888 23.5265 21.3888C23.6475 21.3888 23.9139 21.1863 24.0109 21.1173C24.3138 20.8923 24.7237 20.5468 25.0147 20.3048L25.9111 12.4201ZM13.9296 27.0313L14.8318 28.4961L15.1834 33.0723C15.1834 33.5853 16.8956 34 19.0015 34C21.1073 34 22.8195 33.5853 22.8195 33.0723L23.0988 28.4493L23.9503 27.0313C21.5535 27.9943 16.4234 28.0283 13.9296 27.0313Z" fill="#9A3437"/>
<path d="M24.1534 3.0002C24.1126 3.00178 24.0809 3.01315 24.0596 3.0334L20.345 7.44548L19.5873 10.0509C19.0723 10.0339 18.5406 10.0275 17.9956 10.0275C14.1349 10.0275 11 10.4365 11 10.9435C11 12.1535 24.9892 12.1535 24.9892 10.9435C24.9892 10.5685 23.3145 10.2517 20.8997 10.1017L21.4993 7.9572L24.9736 3.77754L24.9795 3.77168C25.0575 3.69068 24.9052 3.44757 24.6572 3.23458C24.4712 3.07408 24.2757 2.99547 24.1534 3.0002ZM19.3021 11.0763L19.2885 11.1173C19.2825 11.1223 19.2826 11.1289 19.2826 11.1349C19.2826 11.2099 19.5855 11.2716 19.9544 11.2716C20.3234 11.2716 20.6282 11.2099 20.6282 11.1349L20.6399 11.088C20.7369 11.123 20.7903 11.1631 20.7903 11.2091C20.7903 11.3301 20.4156 11.429 19.9486 11.424C19.4946 11.424 19.1186 11.3321 19.1186 11.2111C19.1186 11.1591 19.1932 11.1113 19.3021 11.0763ZM24.9111 11.4201C23.0603 12.4071 12.9497 12.4137 11.0918 11.4337L11.914 18.6661C12.271 17.5131 13.1738 15.9565 14.3357 15.4845C14.7167 15.3285 15.1035 15.3292 15.4665 15.5372C15.7815 15.7102 16.0478 16.0729 16.0778 16.2169C16.1508 16.5919 15.9573 16.7403 15.8063 16.7403C15.6243 16.7403 15.4852 16.4764 15.3942 16.3204C15.1462 15.8994 14.7708 15.8813 14.3709 16.1583C13.9529 16.4463 13.5898 16.9307 13.3358 17.3517C13.0268 17.8587 12.7662 18.4177 12.6093 18.9767C12.5183 19.2997 12.4351 19.8171 12.5741 20.1231C12.6351 20.2501 12.725 20.3302 12.871 20.3302C13.1739 20.3302 13.614 19.9501 13.826 19.7481C14.098 19.4891 14.4488 19.0853 14.5818 18.8263L14.8982 17.9337C15.0552 17.5417 15.4958 17.6107 15.4958 17.9337C15.4958 18.5217 15.2733 18.7177 14.8923 19.9337C14.5413 21.0577 14.4314 21.422 14.4314 21.422C14.3894 21.583 14.2256 21.8536 14.0506 21.8536C13.9776 21.8536 13.9243 21.8293 13.8943 21.7833C13.8333 21.7023 13.8395 21.48 13.8455 21.422C13.8575 21.238 14.2259 20.1418 14.2869 19.9688C14.1659 20.0958 14.0392 20.2237 13.9002 20.3497C13.5732 20.6437 13.0475 21.0294 12.5995 21.0294C12.3935 21.0294 12.2617 20.9767 12.1347 20.8907L12.5936 25.4786C12.7146 25.7666 14.9664 26.4649 17.9311 26.4649C20.9019 26.4649 23.1517 25.7616 23.2667 25.4786L23.9268 20.0274C23.5818 20.3274 23.1833 20.6969 22.7414 20.8809C22.4144 21.0139 21.6887 21.0989 21.6887 20.5509C21.6887 20.2509 22.2397 19.6986 22.5597 19.3126C22.6447 19.2146 22.8429 18.9728 22.8429 18.8458C22.8429 18.6788 22.4809 18.7174 22.1359 18.9884C21.9419 19.1444 21.7596 19.3529 21.6086 19.5489C21.3486 19.8949 21.21 20.1935 21.095 20.4415C20.72 21.2595 20.8472 20.9371 20.5442 21.7091C20.2413 22.4761 20.2908 22.3887 20.2298 22.5157C20.1758 22.6257 20.0966 22.7185 19.9876 22.7755C19.8727 22.8335 19.7155 22.8269 19.6185 22.7579C19.5645 22.7229 19.5385 22.648 19.5385 22.545C19.5385 22.493 19.546 22.4407 19.558 22.3887C19.649 22.0367 20.0302 21.3462 20.4661 20.4122C20.5631 20.1992 20.526 20.2624 20.513 20.2794C20.138 20.6254 19.8529 20.7928 19.642 20.8848C19.291 21.0348 18.8551 21.0345 18.7651 20.6485C18.7591 20.6255 18.7594 20.6012 18.7534 20.5782C18.0394 21.1082 17.2835 21.2524 17.5445 20.1114C17.2665 20.5844 16.7811 20.9708 16.1871 20.9708C15.9391 20.9708 15.7576 20.8908 15.6676 20.6778C15.5286 20.3608 15.746 19.8178 15.945 19.3048C16.048 19.0458 16.1886 18.7342 16.3766 18.3712C16.4736 18.1752 16.6295 18.0594 16.8355 18.1114C16.8715 18.1234 16.9032 18.1354 16.9332 18.1524C17.0902 18.2564 17.0297 18.4105 16.9508 18.5665C16.7208 18.9985 16.5213 19.3157 16.3883 19.7657C16.3343 19.9557 16.2661 20.2852 16.4781 20.2852C16.6231 20.2852 16.7621 20.2386 16.8961 20.1466C17.174 19.9506 17.3979 19.6572 17.5679 19.3692C17.6889 19.1622 17.8347 18.8912 17.9077 18.6603C17.9377 18.5623 17.9751 18.4699 18.0171 18.3829C18.0841 18.2389 18.1735 18.0899 18.3315 18.0899C18.4105 18.0899 18.4759 18.1189 18.5249 18.1759C18.6278 18.3029 18.6052 18.4334 18.5502 18.5724C18.4293 18.8954 18.2663 19.1842 18.1323 19.5352C18.0533 19.7372 17.9683 19.9961 17.9683 20.2091C17.9683 20.4051 18.1923 20.3584 18.3803 20.2774C18.5253 20.2144 18.6704 20.1176 18.7924 20.0196C18.8654 19.7376 18.8461 19.8 20.39 16.088C20.469 15.898 20.6141 15.8165 20.7591 15.8165C20.8321 15.8165 20.8914 15.841 20.9524 15.881C21.0554 15.956 21.0569 16.1154 21.0149 16.2364C20.9729 16.3464 20.9775 16.3119 20.7415 16.8419C20.4265 17.5389 20.2217 18.0417 19.9427 18.6817C19.8277 18.9467 19.4774 19.7709 19.4174 19.9669C19.3814 20.0939 19.3379 20.3009 19.4779 20.3009C19.8049 20.3009 20.6463 19.5454 20.8763 19.3204C20.8883 19.3034 20.9069 19.2972 20.9309 19.2852C20.9669 19.1752 21.0025 19.0728 21.0325 18.9688C21.1175 18.7498 21.1967 18.4945 21.3547 18.3165C21.4027 18.2585 21.4568 18.2247 21.5168 18.2247C21.6858 18.2247 21.7707 18.2932 21.7707 18.4552C21.7707 18.5182 21.7293 18.7496 21.7043 18.8126C21.7893 18.7266 21.8788 18.6408 21.9758 18.5548C22.8837 17.7538 23.5304 18.1625 23.5304 18.5665C23.5304 18.9925 22.9924 19.5852 22.6964 19.9142C22.5994 20.0241 22.3997 20.2253 22.3937 20.2833C22.3937 20.3583 22.4475 20.3888 22.5265 20.3888C22.6475 20.3888 22.9139 20.1863 23.0109 20.1173C23.3138 19.8923 23.7237 19.5468 24.0147 19.3048L24.9111 11.4201ZM12.9296 26.0313L13.8318 27.4961L14.1834 32.0723C14.1834 32.5853 15.8956 33 18.0015 33C20.1073 33 21.8195 32.5853 21.8195 32.0723L22.0988 27.4493L22.9503 26.0313C20.5535 26.9943 15.4234 27.0283 12.9296 26.0313Z" fill="white"/>
</svg>
