<svg width="36" height="36" viewBox="0 0 36 36" fill="none" xmlns="http://www.w3.org/2000/svg">
<path d="M0 5C0 2.23858 2.23858 0 5 0H31C33.7614 0 36 2.23858 36 5V31C36 33.7614 33.7614 36 31 36H5C2.23858 36 0 33.7614 0 31V5Z" fill="#F06292"/>
<path d="M28.9574 20.6448C27.9438 20.6501 27.0659 20.8963 26.3303 21.2638C26.0614 20.7202 25.7886 20.2419 25.7431 19.8864C25.6897 19.4715 25.6278 19.2233 25.6924 18.7291C25.7569 18.2348 26.0397 17.5344 26.0357 17.4817C26.0318 17.429 25.9725 17.1775 25.3879 17.1729C24.8033 17.1688 24.303 17.2869 24.2444 17.443C24.1857 17.5991 24.073 17.9506 24.0031 18.3175C23.901 18.8538 22.8359 20.7675 22.2315 21.7681C22.0338 21.3772 21.8657 21.033 21.8308 20.7609C21.7774 20.346 21.7155 20.0978 21.7801 19.6035C21.8447 19.1093 22.1274 18.4089 22.1234 18.3562C22.1195 18.3035 22.0602 18.052 21.4756 18.0473C20.891 18.0433 20.3907 18.1614 20.3321 18.3175C20.2734 18.4736 20.2101 18.8385 20.0908 19.192C19.9709 19.5449 18.5558 22.7366 18.1848 23.5644C17.9956 23.986 17.8315 24.3249 17.7155 24.5557L17.7149 24.5543C17.7149 24.5543 17.7076 24.5697 17.6957 24.5957C17.5962 24.7925 17.5376 24.9012 17.5376 24.9012C17.5376 24.9012 17.5382 24.9025 17.5395 24.9052C17.4605 25.0499 17.3761 25.184 17.3346 25.184C17.3056 25.184 17.2469 24.7991 17.3471 24.2708C17.558 23.1636 18.0635 21.4373 18.0589 21.3772C18.0563 21.3465 18.1531 21.0457 17.7287 20.8883C17.3161 20.7355 17.1691 20.9903 17.1316 20.991C17.0953 20.9917 17.0683 21.081 17.0683 21.081C17.0683 21.081 17.5277 19.1393 16.1917 19.1393C15.356 19.1393 14.1987 20.0645 13.6286 20.9029C13.2687 21.1017 12.4983 21.5273 11.6817 21.9816C11.3679 22.1563 11.0476 22.3344 10.7438 22.5038C10.7234 22.4805 10.7023 22.4578 10.6812 22.4345C9.06049 20.6848 6.06564 19.4475 6.19218 17.0948C6.23832 16.2397 6.53227 13.9877 11.9479 11.2569C16.3842 9.0196 19.936 9.63528 20.5496 10.9994C21.4261 12.9491 18.6514 16.5718 14.0444 17.0948C12.2893 17.2943 11.3646 16.6052 11.1346 16.3491C10.8927 16.0789 10.8565 16.0669 10.7662 16.1176C10.6192 16.2003 10.7121 16.4384 10.7662 16.5805C10.9039 16.9427 11.4681 17.5851 12.4304 17.9053C13.2773 18.1868 15.3382 18.3408 17.8302 17.365C20.6221 16.2723 22.8016 13.232 22.161 10.6912C21.5098 8.10709 17.2759 7.25728 13.2687 8.69809C10.8809 9.5559 8.29926 10.902 6.44263 12.659C4.23538 14.7482 3.88343 16.5672 4.02843 17.3269C4.54383 20.0271 8.22083 21.7854 9.69321 23.0882C9.62071 23.1289 9.55217 23.1669 9.49021 23.2016C8.75205 23.5711 5.94898 25.0559 5.24772 26.6242C4.45221 28.4032 5.37427 29.6799 5.98457 29.852C7.87547 30.3843 9.8158 29.4264 10.8591 27.8522C11.9018 26.2786 11.7746 24.2288 11.2961 23.2936C11.2902 23.2823 11.2836 23.2709 11.2776 23.2589C11.4681 23.1449 11.6625 23.0288 11.855 22.9141C12.2307 22.6906 12.5997 22.4825 12.9194 22.3064C12.7401 22.8027 12.609 23.3983 12.5411 24.2582C12.4607 25.2681 12.87 26.5735 13.4051 27.0871C13.6411 27.3132 13.9245 27.3186 14.1038 27.3186C14.7266 27.3186 15.0107 26.7943 15.3237 26.1739C15.7073 25.4135 16.048 24.5277 16.048 24.5277C16.048 24.5277 15.621 26.9197 16.7849 26.9197C17.2093 26.9197 17.6358 26.3627 17.8262 26.0792C17.8269 26.0825 17.8269 26.0839 17.8269 26.0839C17.8269 26.0839 17.8381 26.0652 17.8599 26.0285C17.904 25.9605 17.9291 25.9171 17.9291 25.9171C17.9291 25.9171 17.9297 25.9124 17.931 25.9044C18.1017 25.6049 18.4801 24.9219 19.0469 23.7952C19.7798 22.3398 20.4823 20.5161 20.4823 20.5161C20.4823 20.5161 20.5476 20.9616 20.7618 21.6994C20.8877 22.133 21.1553 22.6126 21.3668 23.0728C21.1968 23.3116 21.0926 23.4484 21.0926 23.4484C21.0926 23.4484 21.0933 23.451 21.0953 23.4557C20.9595 23.6385 20.8073 23.8353 20.6478 24.0274C20.0691 24.7244 19.3804 25.5209 19.2881 25.7503C19.1793 26.0212 19.205 26.2199 19.4153 26.3807C19.5688 26.4974 19.8417 26.5161 20.1271 26.4968C20.6471 26.4614 21.0122 26.3307 21.1928 26.2513C21.4742 26.1506 21.8018 25.9925 22.1089 25.7637C22.6764 25.3414 23.0185 24.7378 22.9855 23.9373C22.9671 23.4964 22.8287 23.0595 22.6527 22.6473C22.7041 22.5726 22.7555 22.4965 22.8076 22.4205C23.7019 21.0971 24.3959 19.6429 24.3959 19.6429C24.3959 19.6429 24.4612 20.0885 24.6754 20.8262C24.7835 21.1991 24.9977 21.6067 25.1901 22.0056C24.3491 22.6973 23.8278 23.5011 23.6466 24.028C23.3118 25.0033 23.5741 25.4448 24.0657 25.5456C24.2885 25.5909 24.6036 25.4875 24.8402 25.3861C25.1348 25.2874 25.4887 25.1227 25.8196 24.8765C26.387 24.4543 26.9327 23.8633 26.8998 23.0635C26.8846 22.6993 26.7871 22.3378 26.6546 21.9909C27.3677 21.6901 28.2904 21.5233 29.4662 21.662C31.9885 21.9602 32.4828 23.5538 32.3886 24.2208C32.2937 24.8879 31.7651 25.2547 31.5878 25.3655C31.4112 25.4762 31.3571 25.5149 31.3716 25.5969C31.3934 25.7163 31.4751 25.7123 31.626 25.6863C31.8336 25.651 32.9501 25.144 32.9982 23.9126C33.0582 22.3478 31.5786 20.6308 28.9574 20.6448ZM9.51658 27.2779C8.68087 28.2004 7.5143 28.5486 7.0134 28.2551C6.47295 27.9382 6.68715 26.5801 7.71202 25.6009C8.33683 25.0046 9.14354 24.4549 9.67871 24.1168C9.80064 24.0427 9.97925 23.934 10.1967 23.8019C10.233 23.7812 10.2534 23.7699 10.2534 23.7699L10.2528 23.7686C10.295 23.7432 10.3378 23.7172 10.3819 23.6898C10.7556 25.0833 10.3938 26.31 9.51658 27.2779ZM15.6032 23.0908C15.3125 23.8086 14.7035 25.6456 14.3325 25.5469C14.0141 25.4622 13.8204 24.0661 14.2692 22.692C14.4946 22.0002 14.977 21.1738 15.2605 20.8529C15.7165 20.3366 16.2188 20.1679 16.3407 20.3773C16.4956 20.6441 15.7857 22.6406 15.6032 23.0908ZM20.6313 25.5189C20.508 25.5842 20.3947 25.6249 20.3426 25.5936C20.3037 25.5702 20.3934 25.4842 20.3934 25.4842C20.3934 25.4842 21.0221 24.7991 21.2699 24.4876C21.4143 24.3062 21.581 24.0907 21.7629 23.8506C21.7642 23.8746 21.7649 23.8986 21.7649 23.922C21.7636 24.7424 20.9806 25.2961 20.6313 25.5189ZM24.5047 24.625C24.4124 24.559 24.4282 24.3449 24.7308 23.6772C24.8494 23.415 25.1209 22.9741 25.5915 22.5525C25.6462 22.726 25.6792 22.8921 25.6785 23.0468C25.6726 24.0794 24.945 24.465 24.5047 24.625Z" fill="#B4496D"/>
<path d="M27.9574 19.6448C26.9438 19.6501 26.0659 19.8963 25.3303 20.2638C25.0614 19.7202 24.7886 19.2419 24.7431 18.8864C24.6897 18.4715 24.6278 18.2233 24.6924 17.7291C24.7569 17.2348 25.0397 16.5344 25.0357 16.4817C25.0318 16.429 24.9725 16.1775 24.3879 16.1729C23.8033 16.1688 23.303 16.2869 23.2444 16.443C23.1857 16.5991 23.073 16.9506 23.0031 17.3175C22.901 17.8538 21.8359 19.7675 21.2315 20.7681C21.0338 20.3772 20.8657 20.033 20.8308 19.7609C20.7774 19.346 20.7155 19.0978 20.7801 18.6035C20.8447 18.1093 21.1274 17.4089 21.1234 17.3562C21.1195 17.3035 21.0602 17.052 20.4756 17.0473C19.891 17.0433 19.3907 17.1614 19.3321 17.3175C19.2734 17.4736 19.2101 17.8385 19.0908 18.192C18.9709 18.5449 17.5558 21.7366 17.1848 22.5644C16.9956 22.986 16.8315 23.3249 16.7155 23.5557L16.7149 23.5543C16.7149 23.5543 16.7076 23.5697 16.6957 23.5957C16.5962 23.7925 16.5376 23.9012 16.5376 23.9012C16.5376 23.9012 16.5382 23.9025 16.5395 23.9052C16.4605 24.0499 16.3761 24.184 16.3346 24.184C16.3056 24.184 16.2469 23.7991 16.3471 23.2708C16.558 22.1636 17.0635 20.4373 17.0589 20.3772C17.0563 20.3465 17.1531 20.0457 16.7287 19.8883C16.3161 19.7355 16.1691 19.9903 16.1316 19.991C16.0953 19.9917 16.0683 20.081 16.0683 20.081C16.0683 20.081 16.5277 18.1393 15.1917 18.1393C14.356 18.1393 13.1987 19.0645 12.6286 19.9029C12.2687 20.1017 11.4983 20.5273 10.6817 20.9816C10.3679 21.1563 10.0476 21.3344 9.74378 21.5038C9.72335 21.4805 9.70226 21.4578 9.68117 21.4345C8.06049 19.6848 5.06564 18.4475 5.19218 16.0948C5.23832 15.2397 5.53227 12.9877 10.9479 10.2569C15.3842 8.0196 18.936 8.63528 19.5496 9.99938C20.4261 11.9491 17.6514 15.5718 13.0444 16.0948C11.2893 16.2943 10.3646 15.6052 10.1346 15.3491C9.89274 15.0789 9.85649 15.0669 9.76619 15.1176C9.61922 15.2003 9.71215 15.4384 9.76619 15.5805C9.90394 15.9427 10.4681 16.5851 11.4304 16.9053C12.2773 17.1868 14.3382 17.3408 16.8302 16.365C19.6221 15.2723 21.8016 12.232 21.161 9.69121C20.5098 7.10709 16.2759 6.25728 12.2687 7.69809C9.88087 8.5559 7.29926 9.90199 5.44263 11.659C3.23538 13.7482 2.88343 15.5672 3.02843 16.3269C3.54383 19.0271 7.22083 20.7854 8.69321 22.0882C8.62071 22.1289 8.55217 22.1669 8.49021 22.2016C7.75205 22.5711 4.94898 24.0559 4.24772 25.6242C3.45221 27.4032 4.37427 28.6799 4.98457 28.852C6.87547 29.3843 8.8158 28.4264 9.85912 26.8522C10.9018 25.2786 10.7746 23.2288 10.2961 22.2936C10.2902 22.2823 10.2836 22.2709 10.2776 22.2589C10.4681 22.1449 10.6625 22.0288 10.855 21.9141C11.2307 21.6906 11.5997 21.4825 11.9194 21.3064C11.7401 21.8027 11.609 22.3984 11.5411 23.2582C11.4607 24.2681 11.87 25.5735 12.4051 26.0871C12.6411 26.3132 12.9245 26.3186 13.1038 26.3186C13.7266 26.3186 14.0107 25.7943 14.3237 25.1739C14.7073 24.4135 15.0481 23.5277 15.0481 23.5277C15.0481 23.5277 14.621 25.9197 15.7849 25.9197C16.2093 25.9197 16.6358 25.3627 16.8262 25.0792C16.8269 25.0825 16.8269 25.0839 16.8269 25.0839C16.8269 25.0839 16.8381 25.0652 16.8599 25.0285C16.904 24.9605 16.9291 24.9171 16.9291 24.9171C16.9291 24.9171 16.9297 24.9124 16.931 24.9044C17.1017 24.6049 17.4801 23.9219 18.0469 22.7952C18.7798 21.3398 19.4823 19.5161 19.4823 19.5161C19.4823 19.5161 19.5476 19.9616 19.7618 20.6994C19.8877 21.133 20.1553 21.6126 20.3668 22.0728C20.1968 22.3116 20.0926 22.4484 20.0926 22.4484C20.0926 22.4484 20.0933 22.451 20.0953 22.4557C19.9595 22.6385 19.8073 22.8353 19.6478 23.0274C19.0691 23.7244 18.3804 24.5209 18.2881 24.7503C18.1793 25.0212 18.205 25.2199 18.4153 25.3807C18.5688 25.4974 18.8417 25.5161 19.1271 25.4968C19.6471 25.4614 20.0122 25.3307 20.1928 25.2513C20.4742 25.1506 20.8018 24.9925 21.1089 24.7637C21.6764 24.3414 22.0185 23.7378 21.9855 22.9373C21.9671 22.4964 21.8287 22.0595 21.6527 21.6473C21.7041 21.5726 21.7555 21.4965 21.8076 21.4205C22.7019 20.0971 23.3959 18.6429 23.3959 18.6429C23.3959 18.6429 23.4612 19.0885 23.6754 19.8262C23.7835 20.1991 23.9977 20.6067 24.1901 21.0056C23.3491 21.6973 22.8278 22.5011 22.6466 23.028C22.3118 24.0033 22.5741 24.4448 23.0657 24.5456C23.2885 24.5909 23.6036 24.4875 23.8402 24.3861C24.1348 24.2874 24.4887 24.1227 24.8196 23.8765C25.387 23.4543 25.9327 22.8633 25.8998 22.0635C25.8846 21.6993 25.7871 21.3378 25.6546 20.9909C26.3677 20.6901 27.2904 20.5233 28.4662 20.662C30.9885 20.9602 31.4828 22.5538 31.3886 23.2208C31.2937 23.8879 30.7651 24.2547 30.5878 24.3655C30.4112 24.4762 30.3571 24.5149 30.3716 24.5969C30.3934 24.7163 30.4751 24.7123 30.626 24.6863C30.8336 24.651 31.9501 24.144 31.9982 22.9126C32.0582 21.3478 30.5786 19.6308 27.9574 19.6448ZM8.51658 26.2779C7.68087 27.2004 6.5143 27.5486 6.0134 27.2551C5.47295 26.9382 5.68715 25.5801 6.71202 24.6009C7.33683 24.0046 8.14354 23.4549 8.67871 23.1168C8.80064 23.0427 8.97925 22.934 9.19675 22.8019C9.233 22.7812 9.25343 22.7699 9.25343 22.7699L9.25277 22.7686C9.29495 22.7432 9.33779 22.7172 9.38195 22.6898C9.75565 24.0833 9.39381 25.31 8.51658 26.2779ZM14.6032 22.0908C14.3125 22.8086 13.7035 24.6456 13.3325 24.5469C13.0141 24.4622 12.8204 23.0661 13.2692 21.692C13.4946 21.0002 13.977 20.1738 14.2605 19.8529C14.7165 19.3366 15.2188 19.1679 15.3407 19.3773C15.4956 19.6441 14.7857 21.6406 14.6032 22.0908ZM19.6313 24.5189C19.508 24.5842 19.3947 24.6249 19.3426 24.5936C19.3037 24.5702 19.3934 24.4842 19.3934 24.4842C19.3934 24.4842 20.0221 23.7991 20.2699 23.4876C20.4143 23.3062 20.581 23.0907 20.7629 22.8506C20.7642 22.8746 20.7649 22.8986 20.7649 22.922C20.7636 23.7424 19.9806 24.2961 19.6313 24.5189ZM23.5047 23.625C23.4124 23.559 23.4282 23.3449 23.7308 22.6772C23.8494 22.415 24.1209 21.9741 24.5915 21.5525C24.6462 21.726 24.6792 21.8921 24.6785 22.0468C24.6726 23.0794 23.945 23.465 23.5047 23.625Z" fill="white"/>
</svg>
