<svg width="36" height="36" viewBox="0 0 36 36" fill="none" xmlns="http://www.w3.org/2000/svg">
<path d="M36 31C36 33.7614 33.7614 36 31 36H5C2.23858 36 0 33.7614 0 31V5C0 2.23858 2.23858 0 5 0H31C33.7614 0 36 2.23858 36 5V31Z" fill="#005FF9"/>
<path d="M28 18.0232C28 19.0695 27.8328 20.028 27.4985 20.8988C27.1641 21.7622 26.6923 22.4354 26.083 22.9183C25.4811 23.4012 24.7827 23.6427 23.9876 23.6427C23.4006 23.6427 22.8916 23.489 22.4607 23.1817C22.0297 22.8744 21.7399 22.4573 21.5913 21.9305H21.4576C21.0935 22.5012 20.644 22.9293 20.109 23.2146C19.574 23.5 18.9721 23.6427 18.3034 23.6427C17.0923 23.6427 16.1375 23.2585 15.439 22.4902C14.748 21.722 14.4025 20.6829 14.4025 19.3732C14.4025 17.8659 14.8632 16.6439 15.7845 15.7073C16.7059 14.7634 17.943 14.2915 19.496 14.2915C20.0607 14.2915 20.6848 14.3427 21.3684 14.4451C22.4721 14.597 23.1704 15.6221 23.1169 16.7349L22.9622 19.9549V20.2183C22.9622 21.389 23.3486 21.9744 24.1214 21.9744C24.7084 21.9744 25.1728 21.6012 25.5146 20.8549C25.8638 20.1085 26.0384 19.1573 26.0384 18.0012C26.0384 16.75 25.7783 15.6524 25.2582 14.7085C24.7381 13.7573 23.9988 13.0256 23.0402 12.5134C22.0817 12.0012 20.982 11.7451 19.7412 11.7451C18.1585 11.7451 16.7802 12.0671 15.6062 12.711C14.4396 13.3549 13.548 14.2768 12.9313 15.4768C12.3146 16.6695 12.0062 18.0561 12.0062 19.6366C12.0062 21.7585 12.582 23.3902 13.7337 24.5317C14.8854 25.6732 16.5387 26.2439 18.6935 26.2439C20.3356 26.2439 22.0483 25.9146 23.8316 25.2561V27.0561C22.2712 27.6854 20.5734 28 18.7381 28C15.9889 28 13.8452 27.272 12.3071 25.8159C10.769 24.3524 10 22.3146 10 19.7024C10 17.7927 10.4161 16.0951 11.2483 14.6098C12.0805 13.1171 13.2322 11.9756 14.7034 11.1854C16.182 10.3951 17.8539 10 19.7189 10C21.3313 10 22.7653 10.3293 24.0211 10.9878C25.2842 11.6463 26.2613 12.5866 26.9523 13.8085C27.6508 15.0232 28 16.428 28 18.0232ZM16.5424 19.4171C16.5424 21.122 17.2223 21.9744 18.582 21.9744C20.0161 21.9744 20.8 20.9024 20.9337 18.7585L21.0675 16.1354C20.5994 16.011 20.0978 15.9488 19.5628 15.9488C18.6118 15.9488 17.8687 16.2598 17.3337 16.8817C16.8062 17.5037 16.5424 18.3488 16.5424 19.4171Z" fill="#0047BB"/>
<path d="M27 17.0232C27 18.0695 26.8328 19.028 26.4985 19.8988C26.1641 20.7622 25.6923 21.4354 25.083 21.9183C24.4811 22.4012 23.7827 22.6427 22.9876 22.6427C22.4006 22.6427 21.8916 22.489 21.4607 22.1817C21.0297 21.8744 20.7399 21.4573 20.5913 20.9305H20.4576C20.0935 21.5012 19.644 21.9293 19.109 22.2146C18.574 22.5 17.9721 22.6427 17.3034 22.6427C16.0923 22.6427 15.1375 22.2585 14.439 21.4902C13.748 20.722 13.4025 19.6829 13.4025 18.3732C13.4025 16.8659 13.8632 15.6439 14.7845 14.7073C15.7059 13.7634 16.943 13.2915 18.496 13.2915C19.0607 13.2915 19.6848 13.3427 20.3684 13.4451C21.4721 13.597 22.1704 14.6221 22.1169 15.7349L21.9622 18.9549V19.2183C21.9622 20.389 22.3486 20.9744 23.1214 20.9744C23.7084 20.9744 24.1728 20.6012 24.5146 19.8549C24.8638 19.1085 25.0384 18.1573 25.0384 17.0012C25.0384 15.75 24.7783 14.6524 24.2582 13.7085C23.7381 12.7573 22.9988 12.0256 22.0402 11.5134C21.0817 11.0012 19.982 10.7451 18.7412 10.7451C17.1585 10.7451 15.7802 11.0671 14.6062 11.711C13.4396 12.3549 12.548 13.2768 11.9313 14.4768C11.3146 15.6695 11.0062 17.0561 11.0062 18.6366C11.0062 20.7585 11.582 22.3902 12.7337 23.5317C13.8854 24.6732 15.5387 25.2439 17.6935 25.2439C19.3356 25.2439 21.0483 24.9146 22.8316 24.2561V26.0561C21.2712 26.6854 19.5734 27 17.7381 27C14.9889 27 12.8452 26.272 11.3071 24.8159C9.76904 23.3524 9 21.3146 9 18.7024C9 16.7927 9.4161 15.0951 10.2483 13.6098C11.0805 12.1171 12.2322 10.9756 13.7034 10.1854C15.182 9.39512 16.8539 9 18.7189 9C20.3313 9 21.7653 9.32927 23.0211 9.9878C24.2842 10.6463 25.2613 11.5866 25.9523 12.8085C26.6508 14.0232 27 15.428 27 17.0232ZM15.5424 18.4171C15.5424 20.122 16.2223 20.9744 17.582 20.9744C19.0161 20.9744 19.8 19.9024 19.9337 17.7585L20.0675 15.1354C19.5994 15.011 19.0978 14.9488 18.5628 14.9488C17.6118 14.9488 16.8687 15.2598 16.3337 15.8817C15.8062 16.5037 15.5424 17.3488 15.5424 18.4171Z" fill="#FF9E00"/>
</svg>
