<svg width="36" height="36" viewBox="0 0 36 36" fill="none" xmlns="http://www.w3.org/2000/svg">
<path d="M0 5C0 2.23858 2.23858 0 5 0H31C33.7614 0 36 2.23858 36 5V31C36 33.7614 33.7614 36 31 36H5C2.23858 36 0 33.7614 0 31V5Z" fill="#454B57"/>
<path d="M21 14H15.6667C13.0893 14 11 11.9853 11 9.5C11 7.01471 13.0893 5 15.6667 5H21V14Z" fill="#343841"/>
<path d="M20 23H15.5C13.0147 23 11 20.9853 11 18.5C11 16.0147 13.0147 14 15.5 14H20V23Z" fill="#343841"/>
<path d="M15.5 32C13.0147 32 11 29.9853 11 27.5C11 25.0147 13.0147 23 15.5 23H20V27.5C20 29.9853 17.9853 32 15.5 32Z" fill="#343841"/>
<path d="M24.5 14H20V5H24.5C26.9853 5 29 7.01471 29 9.5C29 11.9853 26.9853 14 24.5 14Z" fill="#343841"/>
<path d="M24.5 23C26.9853 23 29 20.9853 29 18.5C29 16.0147 26.9853 14 24.5 14C22.0147 14 20 16.0147 20 18.5C20 20.9853 22.0147 23 24.5 23Z" fill="#343841"/>
<path d="M20 13H14.6667C12.0893 13 10 10.9853 10 8.5C10 6.01471 12.0893 4 14.6667 4H20V13Z" fill="#E64A19"/>
<path d="M19 22H14.5C12.0147 22 10 19.9853 10 17.5C10 15.0147 12.0147 13 14.5 13H19V22Z" fill="#7C4DFF"/>
<path d="M14.5 31C12.0147 31 10 28.9853 10 26.5C10 24.0147 12.0147 22 14.5 22H19V26.5C19 28.9853 16.9853 31 14.5 31Z" fill="#66BB6A"/>
<path d="M23.5 13H19V4H23.5C25.9853 4 28 6.01471 28 8.5C28 10.9853 25.9853 13 23.5 13Z" fill="#FF7043"/>
<path d="M23.5 22C25.9853 22 28 19.9853 28 17.5C28 15.0147 25.9853 13 23.5 13C21.0147 13 19 15.0147 19 17.5C19 19.9853 21.0147 22 23.5 22Z" fill="#29B6F6"/>
</svg>
