<svg width="36" height="36" viewBox="0 0 36 36" fill="none" xmlns="http://www.w3.org/2000/svg">
<path d="M0 5C0 2.23858 2.23858 0 5 0H31C33.7614 0 36 2.23858 36 5V31C36 33.7614 33.7614 36 31 36H5C2.23858 36 0 33.7614 0 31V5Z" fill="#15BDD2"/>
<path d="M8.37695 18.709H9.07422C9.72591 18.709 10.2135 18.5814 10.5371 18.3262C10.8607 18.0664 11.0225 17.6904 11.0225 17.1982C11.0225 16.7015 10.8857 16.3346 10.6123 16.0977C10.3434 15.8607 9.9196 15.7422 9.34082 15.7422H8.37695V18.709ZM13.1621 17.123C13.1621 18.1986 12.8249 19.0212 12.1504 19.5908C11.4805 20.1605 10.5257 20.4453 9.28613 20.4453H8.37695V24H6.25781V14.0059H9.4502C10.6624 14.0059 11.583 14.2679 12.2119 14.792C12.8454 15.3115 13.1621 16.0885 13.1621 17.123Z" fill="#108E9D"/>
<path d="M23.2383 24H21.126V19.6865H17.168V24H15.0488V14.0059H17.168V17.9229H21.126V14.0059H23.2383V24Z" fill="#108E9D"/>
<path d="M27.8867 18.709H28.584C29.2357 18.709 29.7233 18.5814 30.0469 18.3262C30.3704 18.0664 30.5322 17.6904 30.5322 17.1982C30.5322 16.7015 30.3955 16.3346 30.1221 16.0977C29.8532 15.8607 29.4294 15.7422 28.8506 15.7422H27.8867V18.709ZM32.6719 17.123C32.6719 18.1986 32.3346 19.0212 31.6602 19.5908C30.9902 20.1605 30.0355 20.4453 28.7959 20.4453H27.8867V24H25.7676V14.0059H28.96C30.1722 14.0059 31.0928 14.2679 31.7217 14.792C32.3551 15.3115 32.6719 16.0885 32.6719 17.123Z" fill="#108E9D"/>
<path d="M7.37695 17.709H8.07422C8.72591 17.709 9.21354 17.5814 9.53711 17.3262C9.86068 17.0664 10.0225 16.6904 10.0225 16.1982C10.0225 15.7015 9.88574 15.3346 9.6123 15.0977C9.34342 14.8607 8.9196 14.7422 8.34082 14.7422H7.37695V17.709ZM12.1621 16.123C12.1621 17.1986 11.8249 18.0212 11.1504 18.5908C10.4805 19.1605 9.52572 19.4453 8.28613 19.4453H7.37695V23H5.25781V13.0059H8.4502C9.66244 13.0059 10.583 13.2679 11.2119 13.792C11.8454 14.3115 12.1621 15.0885 12.1621 16.123Z" fill="white"/>
<path d="M22.2383 23H20.126V18.6865H16.168V23H14.0488V13.0059H16.168V16.9229H20.126V13.0059H22.2383V23Z" fill="white"/>
<path d="M26.8867 17.709H27.584C28.2357 17.709 28.7233 17.5814 29.0469 17.3262C29.3704 17.0664 29.5322 16.6904 29.5322 16.1982C29.5322 15.7015 29.3955 15.3346 29.1221 15.0977C28.8532 14.8607 28.4294 14.7422 27.8506 14.7422H26.8867V17.709ZM31.6719 16.123C31.6719 17.1986 31.3346 18.0212 30.6602 18.5908C29.9902 19.1605 29.0355 19.4453 27.7959 19.4453H26.8867V23H24.7676V13.0059H27.96C29.1722 13.0059 30.0928 13.2679 30.7217 13.792C31.3551 14.3115 31.6719 15.0885 31.6719 16.123Z" fill="white"/>
</svg>
