<svg width="36" height="36" viewBox="0 0 36 36" fill="none" xmlns="http://www.w3.org/2000/svg">
<path d="M0 5C0 2.23858 2.23858 0 5 0H31C33.7614 0 36 2.23858 36 5V31C36 33.7614 33.7614 36 31 36H5C2.23858 36 0 33.7614 0 31V5Z" fill="#5561F5"/>
<path fill-rule="evenodd" clip-rule="evenodd" d="M24.8832 27.2638C24.5271 27.2634 24.2741 27.1366 24.0634 26.8525C23.4557 26.0331 23.1586 25.0544 23.1557 25.0443L23.0732 24.7674L22.7866 24.8077C21.266 25.0237 19.7069 25.1336 18.1536 25.1336C16.5994 25.1336 15.0058 25.0237 13.4184 24.8077L13.1333 24.7688L13.0508 25.0443C13.0479 25.0544 12.7508 26.0331 12.1431 26.8525C11.9324 27.1371 11.6794 27.2638 11.3232 27.2638C10.9503 27.2638 10.5154 27.128 10.0556 26.984L9.75124 26.8899C8.44468 26.4973 6.45412 25.1811 5.60212 24.4107C5.2293 24.0537 4.83566 23.6768 5.07124 21.4669C5.33524 18.9882 6.89428 12.7434 7.44676 11.3941C7.94356 10.1806 8.79268 9.65024 9.69268 9.17168C10.6901 8.72672 11.7999 8.35808 12.9687 8.08592C13.2437 8.0288 13.4828 8 13.6925 8C14.3151 8 14.4917 8.26112 14.5704 8.45744L15.0874 9.74576L15.3677 9.68048C16.2682 9.4712 17.185 9.36512 18.0927 9.36512C19.0004 9.36512 19.9244 9.47168 20.8402 9.68096L21.12 9.7448L21.6365 8.45744C21.7152 8.26112 21.8919 8 22.5144 8C22.7242 8 22.9632 8.0288 23.245 8.08784C24.4071 8.35808 25.5164 8.72672 26.5349 9.18128C27.4138 9.65024 28.2629 10.1802 28.7597 11.3936C29.3122 12.7434 30.8712 18.9877 31.1352 21.4664C31.3704 23.6768 30.9773 24.0531 30.5972 24.4165C29.7524 25.1806 27.7618 26.4963 26.4552 26.8885L26.15 26.9826C25.6911 27.128 25.2567 27.2638 24.8832 27.2638ZM13.7393 15.9353C13.0762 15.9353 12.4403 16.1987 11.9715 16.6675C11.5027 17.1364 11.2393 17.7723 11.2393 18.4353C11.2393 19.0983 11.5027 19.7342 11.9715 20.2031C12.4403 20.6719 13.0762 20.9353 13.7393 20.9353C14.4023 20.9353 15.0382 20.6719 15.507 20.2031C15.9759 19.7342 16.2393 19.0983 16.2393 18.4353C16.2393 17.7723 15.9759 17.1364 15.507 16.6675C15.0382 16.1987 14.4023 15.9353 13.7393 15.9353ZM21.0916 16.6675C21.5604 16.1987 22.1963 15.9353 22.8594 15.9353C23.5224 15.9353 24.1583 16.1987 24.6271 16.6675C25.096 17.1364 25.3594 17.7723 25.3594 18.4353C25.3594 19.0983 25.096 19.7342 24.6271 20.2031C24.1583 20.6719 23.5224 20.9353 22.8594 20.9353C22.1963 20.9353 21.5604 20.6719 21.0916 20.2031C20.6228 19.7342 20.3594 19.0983 20.3594 18.4353C20.3594 17.7723 20.6228 17.1364 21.0916 16.6675Z" fill="white"/>
</svg>
