<svg width="36" height="36" viewBox="0 0 36 36" fill="none" xmlns="http://www.w3.org/2000/svg">
<path d="M5 36C2.23858 36 0 33.7614 0 31V5C0 2.23858 2.23858 0 5 0H31C33.7614 0 36 2.23858 36 5V31C36 33.7614 33.7614 36 31 36H5Z" fill="#FFD600"/>
<path d="M24.5378 27.9461C25.2298 29.0701 25.9818 30.1471 27.5748 30.1471C28.9128 30.1471 29.6148 29.4821 29.6148 28.5621C29.6148 27.4611 28.8888 27.0701 27.4168 26.4291L26.6098 26.0851C24.2808 25.0971 22.7318 23.8591 22.7318 21.2441C22.7318 18.8341 24.5768 17.0001 27.4598 17.0001C29.5128 17.0001 30.9878 17.7111 32.0518 19.5731L29.5378 21.1801C28.9848 20.1921 28.3868 19.8031 27.4598 19.8031C26.5138 19.8031 25.9148 20.4001 25.9148 21.1801C25.9148 22.1441 26.5148 22.5341 27.8998 23.1311L28.7068 23.4751C31.4518 24.6441 32.9998 25.8381 32.9998 28.5221C32.9998 31.4141 30.7158 32.9991 27.6498 32.9991C24.6508 32.9991 22.9478 31.4941 21.9998 29.6311L24.5378 27.9461Z" fill="#BFA000"/>
<path d="M8.99982 20.0001V17.0001H20.9998V20.0001H16.4998V33.0001H13.4998V20.0001H8.99982Z" fill="#BFA000"/>
<path d="M23.5378 26.9461C24.2298 28.0701 24.9818 29.1471 26.5748 29.1471C27.9128 29.1471 28.6148 28.4821 28.6148 27.5621C28.6148 26.4611 27.8888 26.0701 26.4168 25.4291L25.6098 25.0851C23.2808 24.0971 21.7318 22.8591 21.7318 20.2441C21.7318 17.8341 23.5768 16.0001 26.4598 16.0001C28.5128 16.0001 29.9878 16.7111 31.0518 18.5731L28.5378 20.1801C27.9848 19.1921 27.3868 18.8031 26.4598 18.8031C25.5138 18.8031 24.9148 19.4001 24.9148 20.1801C24.9148 21.1441 25.5148 21.5341 26.8998 22.1311L27.7068 22.4751C30.4518 23.6441 31.9998 24.8381 31.9998 27.5221C31.9998 30.4141 29.7158 31.9991 26.6498 31.9991C23.6508 31.9991 21.9478 30.4941 20.9998 28.6311L23.5378 26.9461Z" fill="white"/>
<path d="M7.99982 19.0001V16.0001H19.9998V19.0001H15.4998V32.0001H12.4998V19.0001H7.99982Z" fill="white"/>
</svg>
