<svg width="24" height="24" viewBox="0 0 24 24" fill="none" xmlns="http://www.w3.org/2000/svg">
<g id=" Outline / shield-off">
<path id="Union" fill-rule="evenodd" clip-rule="evenodd" d="M12.9797 2.4038L19.9808 6.34179C20.6108 6.69679 21.0008 7.36479 21.0008 8.08479V8.22979C21.0008 11.0168 20.2257 13.6958 18.8387 16.0108L17.3737 14.5438C18.4187 12.6388 19.0008 10.4748 19.0008 8.22979V8.08479L12.0007 4.1468L8.78475 5.9558L7.31575 4.4878L11.0198 2.4038C11.6257 2.0648 12.3767 2.0638 12.9797 2.4038ZM4.70725 3.293C4.31625 2.902 3.68425 2.902 3.29325 3.293C2.90225 3.684 2.90225 4.31599 3.29325 4.707L19.2932 20.707C19.4882 20.902 19.7442 21 20.0002 21C20.2563 21 20.5123 20.902 20.7073 20.707C21.0983 20.316 21.0983 19.684 20.7073 19.293L4.70725 3.293ZM12.302 19.6836L12 19.8536L11.698 19.6836C7.56705 17.3586 5.00005 12.9696 5.00005 8.2296V8.0846L5.16405 7.9926L3.73205 6.5596C3.28105 6.9356 3.00005 7.4866 3.00005 8.0846V8.2296C3.00005 13.6916 5.95705 18.7476 10.7181 21.4256L11.021 21.5966C11.323 21.7666 11.661 21.8506 12 21.8506C12.339 21.8506 12.678 21.7656 12.981 21.5956L13.282 21.4256C14.405 20.7946 15.4221 20.0276 16.3291 19.1576L14.915 17.7436C14.136 18.4866 13.2631 19.1426 12.302 19.6836Z" fill="#2E4052"/>
</g>
</svg>
