<svg width="36" height="36" viewBox="0 0 36 36" fill="none" xmlns="http://www.w3.org/2000/svg">
<rect width="36" height="36" rx="5" fill="#EEF6FF"/>
<path d="M18.0001 6.82067C17.855 6.82067 17.7149 6.7989 17.583 6.75854V8.71362H18.4172V6.75854C18.2853 6.79896 18.1453 6.82067 18.0001 6.82067Z" fill="#135693"/>
<path d="M18.0002 6.87546C18.8076 6.87546 19.4622 6.23177 19.4622 5.43773C19.4622 4.64369 18.8076 4 18.0002 4C17.1927 4 16.5381 4.64369 16.5381 5.43773C16.5381 6.23177 17.1927 6.87546 18.0002 6.87546Z" fill="#6BC1DD"/>
<g opacity="0.15">
<path opacity="0.15" d="M17.7687 5.43773C17.7687 4.85996 18.1155 4.36203 18.6155 4.13349C18.4284 4.04802 18.22 4 18.0002 4C17.1927 4 16.5381 4.64372 16.5381 5.43773C16.5381 6.23173 17.1927 6.8754 18.0002 6.8754C18.22 6.8754 18.4284 6.82739 18.6155 6.74191C18.1155 6.51343 17.7687 6.0155 17.7687 5.43773Z" fill="#440075"/>
</g>
<path d="M27.3192 10.9575H26.457V18.7788H27.3192C27.7919 18.7788 28.1786 18.3985 28.1786 17.9338V11.8025C28.1786 11.3378 27.7919 10.9575 27.3192 10.9575Z" fill="#9EA7AF"/>
<path d="M9.54304 10.9578H8.62398C8.15133 10.9578 7.76465 11.3381 7.76465 11.8028V17.934C7.76465 18.3987 8.15133 18.779 8.62398 18.779H9.54299L9.54304 10.9578Z" fill="#9EA7AF"/>
<path d="M10.1289 29.0116H8.94789C8.5447 29.0116 8.17014 28.8911 7.85938 28.6848V31.4367C7.85938 31.7465 8.1172 32.0001 8.4323 32.0001H10.1289C10.1289 32.0001 10.1289 29.0116 10.1289 29.0116Z" fill="#C5CCD3"/>
<path d="M27.052 29.0115H25.8711V32H27.5677C27.8828 32 28.1406 31.7465 28.1406 31.4366V28.6848C27.8298 28.891 27.4552 29.0115 27.052 29.0115Z" fill="#C5CCD3"/>
<path opacity="0.15" d="M9.06251 31.4365V29.0114H8.94789C8.5447 29.0114 8.17014 28.8909 7.85938 28.6846V31.4364C7.85938 31.7463 8.1172 31.9998 8.4323 31.9998H9.63543C9.32033 31.9999 9.06251 31.7463 9.06251 31.4365Z" fill="#440075"/>
<path d="M10.1289 24.7048H8.9479C7.87212 24.7048 7 25.5624 7 26.6203V27.1837C7 28.2416 7.87218 29.0991 8.9479 29.0991H10.1288L10.1289 24.7048Z" fill="#E6E9ED"/>
<path d="M27.052 24.7041H25.8711V29.0984H27.052C28.1279 29.0984 28.9999 28.2408 28.9999 27.183V26.6196C28.9999 25.5617 28.1278 24.7041 27.052 24.7041Z" fill="#E6E9ED"/>
<g opacity="0.15">
<path opacity="0.15" d="M8.37503 27.183V26.6196C8.37503 25.5617 9.24716 24.7041 10.3229 24.7041H8.9479C7.87212 24.7041 7 25.5617 7 26.6196V27.183C7 28.2408 7.87218 29.0984 8.9479 29.0984H10.3229C9.2471 29.0984 8.37503 28.2408 8.37503 27.183Z" fill="#440075"/>
</g>
<path d="M19.902 20.9558H16.0986V22.3534H19.902V20.9558Z" fill="#9EA7AF"/>
<path opacity="0.15" d="M17.4846 20.9558H16.0986V22.3534H17.4846V20.9558Z" fill="#440075"/>
<path d="M22.474 23.6875V22.7783C22.474 22.5111 22.2517 22.2925 21.98 22.2925H13.8535C13.5817 22.2925 13.3594 22.5111 13.3594 22.7783V23.6875H22.474Z" fill="#C5CCD3"/>
<path opacity="0.15" d="M15.0729 23.6875V22.7783C15.0729 22.5111 15.2952 22.2925 15.567 22.2925H13.8535C13.5817 22.2925 13.3594 22.5111 13.3594 22.7783V23.6875H15.0729Z" fill="#440075"/>
<path d="M25.0672 23.5916H10.9326C10.46 23.5916 10.0732 23.9718 10.0732 24.4366V32H25.9266V24.4366C25.9266 23.9718 25.54 23.5916 25.0672 23.5916Z" fill="#9EA7AF"/>
<g opacity="0.15">
<path opacity="0.15" d="M12.5736 23.5916H10.9326C10.46 23.5916 10.0732 23.9718 10.0732 24.4366V32H11.7142V24.4366C11.7142 23.9718 12.1009 23.5916 12.5736 23.5916Z" fill="#440075"/>
</g>
<path d="M26.5128 20.1757C26.5128 20.6405 26.1261 21.0207 25.6535 21.0207H10.3466C9.87404 21.0207 9.4873 20.6405 9.4873 20.1757V9.50396C9.4873 9.03918 9.87404 8.65894 10.3466 8.65894H25.6535C26.1261 8.65894 26.5128 9.03918 26.5128 9.50396V20.1757Z" fill="#C5CCD3"/>
<g opacity="0.15">
<path opacity="0.15" d="M11.1251 20.1757V9.50396C11.1251 9.03918 11.5118 8.65894 11.9844 8.65894H10.3466C9.87404 8.65894 9.4873 9.03918 9.4873 9.50396V20.1758C9.4873 20.6405 9.87404 21.0208 10.3466 21.0208H11.9844C11.5118 21.0207 11.1251 20.6405 11.1251 20.1757Z" fill="#440075"/>
</g>
<path d="M24.4788 14.8558C24.4788 16.4679 23.1498 17.7746 21.5105 17.7746H14.4889C12.8494 17.7746 11.5205 16.4679 11.5205 14.8558C11.5205 13.2437 12.8494 11.937 14.4889 11.937H21.5105C23.1498 11.937 24.4788 13.2437 24.4788 14.8558Z" fill="#135693"/>
<g opacity="0.15">
<path opacity="0.15" d="M13.1872 14.8558C13.1872 13.2437 14.5161 11.937 16.1555 11.937H14.4889C12.8494 11.937 11.5205 13.2438 11.5205 14.8558C11.5205 16.4679 12.8494 17.7746 14.4889 17.7746H16.1555C14.5161 17.7746 13.1872 16.4679 13.1872 14.8558Z" fill="#440075"/>
</g>
<path d="M14.1923 15.996C14.8297 15.996 15.3465 15.4858 15.3465 14.8565C15.3465 14.2272 14.8297 13.717 14.1923 13.717C13.5548 13.717 13.0381 14.2272 13.0381 14.8565C13.0381 15.4858 13.5548 15.996 14.1923 15.996Z" fill="#6BC1DD"/>
<path d="M21.829 15.9955C22.4664 15.9955 22.9832 15.4853 22.9832 14.856C22.9832 14.2267 22.4664 13.7166 21.829 13.7166C21.1916 13.7166 20.6748 14.2267 20.6748 14.856C20.6748 15.4853 21.1916 15.9955 21.829 15.9955Z" fill="#6BC1DD"/>
<path d="M23.1207 32V27.0885C23.1207 26.7787 22.8629 26.5251 22.5478 26.5251H13.4528C13.1377 26.5251 12.8799 26.7787 12.8799 27.0885V32H23.1207Z" fill="#135693"/>
<path d="M19.0312 31.9999V30.4159C19.0312 30.3229 18.9539 30.2468 18.8594 30.2468H17.1406C17.0461 30.2468 16.9688 30.3229 16.9688 30.4159V31.9999H19.0312Z" fill="#FFC502"/>
<path d="M15.5942 28.2883H14.2765C14.0461 28.2883 13.8594 28.1047 13.8594 27.8782C13.8594 27.6516 14.0461 27.468 14.2765 27.468H15.5942C15.8246 27.468 16.0113 27.6516 16.0113 27.8782C16.0113 28.1047 15.8246 28.2883 15.5942 28.2883Z" fill="#C5CCD3"/>
<path d="M15.0213 29.2895H14.2765C14.0461 29.2895 13.8594 29.106 13.8594 28.8794C13.8594 28.6528 14.0461 28.4692 14.2765 28.4692H15.0213C15.2517 28.4692 15.4384 28.6528 15.4384 28.8794C15.4384 29.106 15.2516 29.2895 15.0213 29.2895Z" fill="#C5CCD3"/>
<path d="M15.5942 30.291H14.2765C14.0461 30.291 13.8594 30.1074 13.8594 29.8809C13.8594 29.6543 14.0461 29.4707 14.2765 29.4707H15.5942C15.8246 29.4707 16.0113 29.6543 16.0113 29.8809C16.0113 30.1074 15.8246 30.291 15.5942 30.291Z" fill="#C5CCD3"/>
<path d="M14.8494 31.2922H14.2765C14.0461 31.2922 13.8594 31.1086 13.8594 30.8821C13.8594 30.6556 14.0461 30.4719 14.2765 30.4719H14.8494C15.0798 30.4719 15.2665 30.6556 15.2665 30.8821C15.2665 31.1086 15.0797 31.2922 14.8494 31.2922Z" fill="#C5CCD3"/>
<path d="M21.5349 30.8803H20.5179C20.2766 30.8803 20.0811 30.688 20.0811 30.4506C20.0811 30.2133 20.2766 30.021 20.5179 30.021H21.5349C21.7763 30.021 21.9719 30.2133 21.9719 30.4506C21.9719 30.688 21.7763 30.8803 21.5349 30.8803Z" fill="#E6E9ED"/>
<path d="M21.026 29.3914C21.5328 29.3914 21.9436 28.9874 21.9436 28.489C21.9436 27.9907 21.5328 27.5867 21.026 27.5867C20.5192 27.5867 20.1084 27.9907 20.1084 28.489C20.1084 28.9874 20.5192 29.3914 21.026 29.3914Z" fill="#5DC647"/>
<path d="M19.0567 28.9608C19.0567 29.0561 18.9774 29.134 18.8806 29.134H17.1194C17.0226 29.134 16.9434 29.0561 16.9434 28.9608V28.0167C16.9434 27.9214 17.0226 27.8435 17.1194 27.8435H18.8806C18.9774 27.8435 19.0567 27.9214 19.0567 28.0167V28.9608Z" fill="#6BC1DD"/>
</svg>
