<svg width="36" height="36" viewBox="0 0 36 36" fill="none" xmlns="http://www.w3.org/2000/svg">
<path d="M0 5C0 2.23858 2.23858 0 5 0H31C33.7614 0 36 2.23858 36 5V31C36 33.7614 33.7614 36 31 36H5C2.23858 36 0 33.7614 0 31V5Z" fill="#E64A19"/>
<path d="M33.4105 17.6L21.4 5.58947C21.0316 5.22105 20.5158 5 20 5C19.4842 5 18.9684 5.22105 18.6 5.58947L16.0211 8.16842L19.0421 11.1895C19.3368 11.0421 19.6316 10.9684 20 10.9684C21.2526 10.9684 22.2105 11.9263 22.2105 13.1789C22.2105 13.5474 22.1368 13.8421 21.9895 14.1368L24.9368 17.0842C25.2316 16.9368 25.5263 16.8632 25.8947 16.8632C27.1474 16.8632 28.1053 17.8211 28.1053 19.0737C28.1053 20.3263 27.1474 21.2842 25.8947 21.2842C24.6421 21.2842 23.6842 20.3263 23.6842 19.0737C23.6842 18.7053 23.7579 18.4105 23.9053 18.1158L20.9579 15.1684C20.8842 15.1684 20.8105 15.2421 20.7368 15.2421V22.9053C21.6211 23.2 22.2105 24.0105 22.2105 24.9684C22.2105 26.2211 21.2526 27.1789 20 27.1789C18.7474 27.1789 17.7895 26.2211 17.7895 24.9684C17.7895 24.0105 18.3789 23.2 19.2632 22.9053V15.1684C18.3789 14.8737 17.7895 14.0632 17.7895 13.1053C17.7895 12.7368 17.8632 12.4421 18.0105 12.1474L14.9895 9.12632L6.58947 17.6C6.22105 17.9684 6 18.4842 6 19C6 19.5158 6.22105 20.0316 6.58947 20.4L18.6 32.4105C18.9684 32.7789 19.4842 33 20 33C20.5158 33 21.0316 32.7789 21.4 32.4105L33.4105 20.4C33.7789 20.0316 34 19.5158 34 19C34 18.4842 33.7789 17.9684 33.4105 17.6Z" fill="#AC3713"/>
<path d="M31.4105 16.6L19.4 4.58947C19.0316 4.22105 18.5158 4 18 4C17.4842 4 16.9684 4.22105 16.6 4.58947L14.0211 7.16842L17.0421 10.1895C17.3368 10.0421 17.6316 9.96842 18 9.96842C19.2526 9.96842 20.2105 10.9263 20.2105 12.1789C20.2105 12.5474 20.1368 12.8421 19.9895 13.1368L22.9368 16.0842C23.2316 15.9368 23.5263 15.8632 23.8947 15.8632C25.1474 15.8632 26.1053 16.8211 26.1053 18.0737C26.1053 19.3263 25.1474 20.2842 23.8947 20.2842C22.6421 20.2842 21.6842 19.3263 21.6842 18.0737C21.6842 17.7053 21.7579 17.4105 21.9053 17.1158L18.9579 14.1684C18.8842 14.1684 18.8105 14.2421 18.7368 14.2421V21.9053C19.6211 22.2 20.2105 23.0105 20.2105 23.9684C20.2105 25.2211 19.2526 26.1789 18 26.1789C16.7474 26.1789 15.7895 25.2211 15.7895 23.9684C15.7895 23.0105 16.3789 22.2 17.2632 21.9053V14.1684C16.3789 13.8737 15.7895 13.0632 15.7895 12.1053C15.7895 11.7368 15.8632 11.4421 16.0105 11.1474L12.9895 8.12632L4.58947 16.6C4.22105 16.9684 4 17.4842 4 18C4 18.5158 4.22105 19.0316 4.58947 19.4L16.6 31.4105C16.9684 31.7789 17.4842 32 18 32C18.5158 32 19.0316 31.7789 19.4 31.4105L31.4105 19.4C31.7789 19.0316 32 18.5158 32 18C32 17.4842 31.7789 16.9684 31.4105 16.6Z" fill="white"/>
</svg>
