<svg width="36" height="36" viewBox="0 0 36 36" fill="none" xmlns="http://www.w3.org/2000/svg">
<path d="M28.1739 36H7.82609C6.83057 36 5.87691 36 4.999 36C2.23758 36 0 33.7614 0 31V5C0 2.23858 2.23858 0 5 0H28.1739C29.1694 0 30.1231 0 31.001 0C33.7624 0 36 2.23858 36 5V31C36 33.7614 33.7624 36 31.001 36C30.1231 36 29.1694 36 28.1739 36Z" fill="url(#paint0_radial_10_319)"/>
<path d="M18.25 24.75C14.391 24.75 11.25 21.61 11.25 17.75C11.25 13.89 14.391 10.75 18.25 10.75C22.109 10.75 25.25 13.89 25.25 17.75C25.25 21.61 22.109 24.75 18.25 24.75ZM18.25 12.75C15.493 12.75 13.25 14.993 13.25 17.75C13.25 20.507 15.493 22.75 18.25 22.75C21.007 22.75 23.25 20.507 23.25 17.75C23.25 14.993 21.007 12.75 18.25 12.75Z" fill="white"/>
<path d="M25.75 11.75C26.5784 11.75 27.25 11.0784 27.25 10.25C27.25 9.42157 26.5784 8.75 25.75 8.75C24.9216 8.75 24.25 9.42157 24.25 10.25C24.25 11.0784 24.9216 11.75 25.75 11.75Z" fill="white"/>
<path d="M24.25 30.75H12.25C8.391 30.75 5.25 27.61 5.25 23.75V11.75C5.25 7.89 8.391 4.75 12.25 4.75H24.25C28.109 4.75 31.25 7.89 31.25 11.75V23.75C31.25 27.61 28.109 30.75 24.25 30.75ZM12.25 6.75C9.493 6.75 7.25 8.993 7.25 11.75V23.75C7.25 26.507 9.493 28.75 12.25 28.75H24.25C27.007 28.75 29.25 26.507 29.25 23.75V11.75C29.25 8.993 27.007 6.75 24.25 6.75H12.25Z" fill="white"/>
<defs>
<radialGradient id="paint0_radial_10_319" cx="0" cy="0" r="1" gradientUnits="userSpaceOnUse" gradientTransform="translate(7.44177 43.2748) rotate(-49.945) scale(54.5052 36.0053)">
<stop offset="0.073" stop-color="#EACC7B"/>
<stop offset="0.184" stop-color="#ECAA59"/>
<stop offset="0.307" stop-color="#EF802E"/>
<stop offset="0.358" stop-color="#EF6D3A"/>
<stop offset="0.46" stop-color="#F04B50"/>
<stop offset="0.516" stop-color="#F03E58"/>
<stop offset="0.689" stop-color="#DB359E"/>
<stop offset="0.724" stop-color="#CE37A4"/>
<stop offset="0.789" stop-color="#AC3CB4"/>
<stop offset="0.877" stop-color="#7544CF"/>
<stop offset="0.98" stop-color="#2B4FF2"/>
</radialGradient>
</defs>
</svg>
