<svg width="36" height="36" viewBox="0 0 36 36" fill="none" xmlns="http://www.w3.org/2000/svg">
<path d="M5 36C2.23858 36 0 33.7614 0 31V5C0 2.23858 2.23858 0 5 0H31C33.7614 0 36 2.23858 36 5V31C36 33.7614 33.7614 36 31 36H5Z" fill="#FFD600"/>
<path d="M24.538 27.947C25.23 29.071 25.982 30.148 27.575 30.148C28.913 30.148 29.615 29.483 29.615 28.563C29.615 27.462 28.889 27.071 27.417 26.43L26.61 26.086C24.281 25.098 22.732 23.86 22.732 21.245C22.732 18.835 24.577 17.001 27.46 17.001C29.513 17.001 30.988 17.712 32.052 19.574L29.538 21.181C28.985 20.193 28.387 19.804 27.46 19.804C26.514 19.804 25.915 20.401 25.915 21.181C25.915 22.145 26.515 22.535 27.9 23.132L28.707 23.476C31.452 24.645 33 25.839 33 28.523C33 31.415 30.716 33 27.65 33C24.651 33 22.948 31.495 22 29.632L24.538 27.947ZM12.952 28.029C13.458 28.935 14.227 29.632 15.333 29.632C16.391 29.632 17 29.214 17 27.589V17H20.333V28.101C20.333 31.468 18.38 33 15.528 33C12.951 33 11.091 31.254 10.333 29.632L12.952 28.029Z" fill="#BFA000"/>
<path d="M23.538 26.947C24.23 28.071 24.982 29.148 26.575 29.148C27.913 29.148 28.615 28.483 28.615 27.563C28.615 26.462 27.889 26.071 26.417 25.43L25.61 25.086C23.281 24.098 21.732 22.86 21.732 20.245C21.732 17.835 23.577 16.001 26.46 16.001C28.513 16.001 29.988 16.712 31.052 18.574L28.538 20.181C27.985 19.193 27.387 18.804 26.46 18.804C25.514 18.804 24.915 19.401 24.915 20.181C24.915 21.145 25.515 21.535 26.9 22.132L27.707 22.476C30.452 23.645 32 24.839 32 27.523C32 30.415 29.716 32 26.65 32C23.651 32 21.948 30.495 21 28.632L23.538 26.947ZM11.952 27.029C12.458 27.935 13.227 28.632 14.333 28.632C15.391 28.632 16 28.214 16 26.589V16H19.333V27.101C19.333 30.468 17.38 32 14.528 32C11.951 32 10.091 30.254 9.33301 28.632L11.952 27.029Z" fill="white"/>
</svg>
