<svg width="36" height="36" viewBox="0 0 36 36" fill="none" xmlns="http://www.w3.org/2000/svg">
<path d="M5 36C2.23858 36 0 33.7614 0 31V5C0 2.23858 2.23858 0 5 0H31C33.7614 0 36 2.23858 36 5V31C36 33.7614 33.7614 36 31 36H5Z" fill="#000001"/>
<path d="M36 5C36 2.23858 33.7614 0 31 0H5C2.23858 0 0 2.23858 0 5V31C0 33.7614 2.23858 36 5 36H31C33.7614 36 36 33.7614 36 31V5Z" fill="#FFD600"/>
<path d="M24.538 27.946C25.23 29.07 25.982 30.147 27.575 30.147C28.913 30.147 29.615 29.482 29.615 28.562C29.615 27.461 28.889 27.07 27.417 26.429L26.61 26.085C24.281 25.097 22.732 23.859 22.732 21.244C22.732 18.834 24.577 17 27.46 17C29.513 17 30.988 17.711 32.052 19.573L29.538 21.18C28.985 20.192 28.387 19.803 27.46 19.803C26.514 19.803 25.915 20.4 25.915 21.18C25.915 22.144 26.515 22.534 27.9 23.131L28.707 23.475C31.452 24.644 33 25.838 33 28.522C33 31.414 30.716 32.999 27.65 32.999C24.651 32.999 22.948 31.494 22 29.631L24.538 27.946Z" fill="#BFA000"/>
<path d="M9 20V17H21V20H16.5V33H13.5V20H9Z" fill="#BFA000"/>
<path d="M23.538 26.946C24.23 28.07 24.982 29.147 26.575 29.147C27.913 29.147 28.615 28.482 28.615 27.562C28.615 26.461 27.889 26.07 26.417 25.429L25.61 25.085C23.281 24.097 21.732 22.859 21.732 20.244C21.732 17.834 23.577 16 26.46 16C28.513 16 29.988 16.711 31.052 18.573L28.538 20.18C27.985 19.192 27.387 18.803 26.46 18.803C25.514 18.803 24.915 19.4 24.915 20.18C24.915 21.144 25.515 21.534 26.9 22.131L27.707 22.475C30.452 23.644 32 24.838 32 27.522C32 30.414 29.716 31.999 26.65 31.999C23.651 31.999 21.948 30.494 21 28.631L23.538 26.946Z" fill="white"/>
<path d="M8 19V16H20V19H15.5V32H12.5V19H8Z" fill="white"/>
</svg>
