<svg width="36" height="36" viewBox="0 0 36 36" fill="none" xmlns="http://www.w3.org/2000/svg">
<path d="M0 5C0 2.23858 2.23858 0 5 0H31C33.7614 0 36 2.23858 36 5V31C36 33.7614 33.7614 36 31 36H5C2.23858 36 0 33.7614 0 31V5Z" fill="#29B6F6"/>
<path d="M29.95 8L26.204 27.126C26.204 27.126 26.043 28 24.959 28C24.383 28 24.086 27.726 24.086 27.726L15.972 20.993L12.002 18.992L6.907 17.637C6.907 17.637 6 17.375 6 16.625C6 16 6.933 15.702 6.933 15.702L28.249 7.234C28.249 7.234 28.9 6.999 29.375 7C29.667 7 30 7.125 30 7.5C30 7.75 29.95 8 29.95 8Z" fill="white"/>
<path d="M19 23.505L15.574 26.879C15.574 26.879 15.425 26.994 15.226 26.999C15.157 27.001 15.083 26.99 15.007 26.956L15.971 20.991L19 23.505Z" fill="#B0BEC5"/>
<path d="M25.897 11.196C25.728 10.976 25.416 10.936 25.196 11.103L12 19C12 19 14.106 24.892 14.427 25.912C14.749 26.933 15.007 26.956 15.007 26.956L15.971 20.992L25.803 11.896C26.023 11.729 26.064 11.416 25.897 11.196Z" fill="#CFD8DC"/>
</svg>
