<svg width="24" height="24" viewBox="0 0 24 24" fill="none" xmlns="http://www.w3.org/2000/svg">
<path fill-rule="evenodd" clip-rule="evenodd" d="M10.494 2.1114C10.9841 2.03808 11.4863 2 11.9981 2C12.5144 2 13.0209 2.03876 13.5151 2.11335C13.5215 2.11432 13.5318 2.11726 13.5458 2.12918C13.561 2.14208 13.5784 2.16417 13.5901 2.19579L13.8713 2.95594C14.262 4.01231 15.0814 4.76297 15.9213 5.24851C16.7655 5.73663 17.8164 6.06151 18.9234 5.87168L19.7283 5.73367C19.762 5.72788 19.7905 5.73195 19.8097 5.7388C19.8276 5.74515 19.8358 5.75285 19.8402 5.75836C20.4673 6.53933 20.9789 7.41537 21.3498 8.36079C21.352 8.36655 21.3546 8.37666 21.3513 8.39468C21.3477 8.41421 21.3372 8.44039 21.3156 8.46635L20.789 9.09713C20.0713 9.95681 19.8273 11.0306 19.8273 12.0002C19.8273 12.9699 20.0713 14.044 20.7891 14.9038L21.3154 15.5342C21.3371 15.5602 21.3475 15.5863 21.3511 15.6058C21.3544 15.6238 21.3519 15.6339 21.3496 15.6397C20.9786 16.5852 20.4669 17.4613 19.8397 18.2423C19.8353 18.2478 19.8271 18.2555 19.8092 18.2619C19.7899 18.2687 19.7615 18.2728 19.7277 18.267L18.9226 18.1289C17.8159 17.9391 16.7652 18.2639 15.9211 18.7519C15.0815 19.2373 14.2623 19.9879 13.8716 21.044L13.5904 21.8042C13.5787 21.8358 13.5612 21.8579 13.5461 21.8708C13.5321 21.8827 13.5219 21.8856 13.5155 21.8866C13.0212 21.9612 12.5145 22 11.9981 22C11.4862 22 10.9838 21.9619 10.4936 21.8885C10.4879 21.8877 10.4784 21.8851 10.4649 21.8736C10.4503 21.8612 10.4332 21.8398 10.4218 21.8089L10.1448 21.06C9.75174 19.9974 8.9263 19.2432 8.08124 18.7558C7.23421 18.2672 6.18041 17.9416 5.07033 18.1319L4.27049 18.2691C4.23662 18.2749 4.2081 18.2708 4.18871 18.2639C4.17073 18.2576 4.16245 18.2498 4.15796 18.2442C3.53225 17.4654 3.02142 16.592 2.65041 15.6495C2.64837 15.6444 2.64585 15.6349 2.64905 15.6175C2.65253 15.5986 2.6627 15.573 2.68393 15.5476L3.19901 14.9306C3.92344 14.0628 4.16844 12.9784 4.16844 12.0002C4.16844 11.0221 3.92346 9.93795 3.19919 9.07038L2.68378 8.45301C2.66253 8.42756 2.65235 8.40195 2.64887 8.38303C2.64567 8.3656 2.64819 8.3561 2.65024 8.3509C3.02115 7.40849 3.53186 6.53517 4.15744 5.75644C4.16192 5.75085 4.17019 5.7431 4.18818 5.73672C4.20756 5.72984 4.23608 5.72577 4.26994 5.73157L5.06951 5.86868C6.17986 6.05908 7.23391 5.73335 8.08113 5.24464C8.92633 4.7571 9.75196 4.00276 10.1451 2.93992L10.4221 2.19114C10.4335 2.16024 10.4505 2.13877 10.4652 2.12634C10.4787 2.11489 10.4883 2.11225 10.494 2.1114ZM11.9981 0C11.3869 0 10.7858 0.0454877 10.1981 0.133411C9.40684 0.251777 8.80101 0.808735 8.54631 1.49727L8.26933 2.24605C8.08859 2.73467 7.6695 3.17319 7.0818 3.5122C6.50089 3.84729 5.92215 3.9857 5.40753 3.89745L4.60796 3.76034C3.8845 3.63629 3.09915 3.88033 2.59823 4.50389C1.84835 5.43736 1.23506 6.48558 0.789191 7.61844C0.495323 8.3651 0.677118 9.17013 1.14847 9.73473L1.66388 10.3521C1.99765 10.7519 2.16844 11.3272 2.16844 12.0002C2.16844 12.6734 1.9976 13.2489 1.6637 13.6489L1.14862 14.2658C0.677273 14.8304 0.495503 15.6355 0.789402 16.3821C1.23538 17.5151 1.84882 18.5634 2.59886 19.4969C3.0998 20.1204 3.8851 20.3644 4.60851 20.2403L5.40835 20.1032C5.92275 20.015 6.50126 20.1533 7.08194 20.4882C7.66944 20.8271 8.08836 21.2655 8.26904 21.7539L8.54604 22.5027C8.80072 23.1912 9.40649 23.7481 10.1976 23.8665C10.7855 23.9545 11.3868 24 11.9981 24C12.6148 24 13.2212 23.9537 13.814 23.8642C14.6056 23.7447 15.2113 23.187 15.4661 22.4981L15.7474 21.7379C15.9262 21.2543 16.3405 20.8196 16.9222 20.4834C17.4989 20.1499 18.0738 20.0126 18.5846 20.1002L19.3897 20.2382C20.1131 20.3623 20.8984 20.1182 21.3991 19.4946C22.151 18.5584 22.7654 17.5068 23.2114 16.3702C23.5047 15.6228 23.3223 14.8174 22.8507 14.2525L22.3244 13.6221C21.9962 13.2289 21.8273 12.6628 21.8273 12.0002C21.8273 11.3378 21.9961 10.7719 22.3243 10.3789L22.8509 9.74807C23.3225 9.18314 23.5049 8.3778 23.2116 7.63032C22.7657 6.49384 22.1514 5.44235 21.3998 4.5062C20.899 3.88254 20.1137 3.63839 19.3903 3.76244L18.5854 3.90045C18.0744 3.98809 17.4993 3.85063 16.9223 3.51706C16.3405 3.18067 15.926 2.74585 15.7471 2.26207L15.4659 1.50192C15.211 0.812955 14.6053 0.255236 13.8136 0.135749C13.2209 0.0462945 12.6146 0 11.9981 0ZM9.00008 12C9.00008 10.3431 10.3432 9 12.0001 9C13.6569 9 15.0001 10.3431 15.0001 12C15.0001 13.6569 13.6569 15 12.0001 15C10.3432 15 9.00008 13.6569 9.00008 12ZM12.0001 7C9.23866 7 7.00008 9.23858 7.00008 12C7.00008 14.7614 9.23866 17 12.0001 17C14.7615 17 17.0001 14.7614 17.0001 12C17.0001 9.23858 14.7615 7 12.0001 7Z" fill="#EEF6FF"/>
</svg>
