<svg width="22" height="22" viewBox="0 0 22 22" fill="none" xmlns="http://www.w3.org/2000/svg">
<path fill-rule="evenodd" clip-rule="evenodd" d="M0 3C0 1.34315 1.34315 0 3 0H13C14.6569 0 16 1.34315 16 3V5C16 5.55228 15.5523 6 15 6C14.4477 6 14 5.55228 14 5V3C14 2.44772 13.5523 2 13 2H3C2.44772 2 2 2.44772 2 3V19C2 19.5523 2.44772 20 3 20H13C13.5523 20 14 19.5523 14 19V17C14 16.4477 14.4477 16 15 16C15.5523 16 16 16.4477 16 17V19C16 20.6569 14.6569 22 13 22H3C1.34315 22 0 20.6569 0 19V3ZM17.2929 7.29289C16.9024 7.68342 16.9024 8.31658 17.2929 8.70711L18.5858 10H7C6.44771 10 6 10.4477 6 11C6 11.5523 6.44771 12 7 12H18.5858L17.2929 13.2929C16.9024 13.6834 16.9024 14.3166 17.2929 14.7071C17.6834 15.0976 18.3166 15.0976 18.7071 14.7071L21.6364 11.7778C21.6486 11.7656 21.6604 11.7533 21.6719 11.7407C21.8734 11.5577 22 11.2936 22 11C22 10.7064 21.8734 10.4423 21.6719 10.2593C21.6604 10.2467 21.6486 10.2344 21.6364 10.2222L18.7071 7.29289C18.3166 6.90237 17.6834 6.90237 17.2929 7.29289Z" fill="#EEF6FF"/>
</svg>
