<svg width="11" height="11" viewBox="0 0 11 11" fill="none" xmlns="http://www.w3.org/2000/svg">
<path fill-rule="evenodd" clip-rule="evenodd" d="M4.44423 7.11114C4.44423 7.35558 4.24423 7.55558 3.99978 7.55558C3.75534 7.55558 3.55534 7.35558 3.55534 7.11114V5.33336C3.55534 5.08892 3.75534 4.88892 3.99978 4.88892C4.24423 4.88892 4.44423 5.08892 4.44423 5.33336V7.11114ZM7.11089 7.11114C7.11089 7.35558 6.91089 7.55558 6.66645 7.55558C6.42201 7.55558 6.22201 7.35558 6.22201 7.11114V5.33336C6.22201 5.08892 6.42201 4.88892 6.66645 4.88892C6.91089 4.88892 7.11089 5.08892 7.11089 5.33336V7.11114ZM7.99978 8.44447C7.99978 8.68936 7.80067 8.88892 7.55534 8.88892H3.11089C2.86556 8.88892 2.66645 8.68936 2.66645 8.44447V3.55558H7.99978V8.44447ZM4.44423 1.92358C4.44423 1.85469 4.53934 1.7778 4.66645 1.7778H5.99978C6.12689 1.7778 6.22201 1.85469 6.22201 1.92358V2.66669H4.44423V1.92358ZM9.33312 2.66669H8.88867H7.11089V1.92358C7.11089 1.35292 6.61267 0.888916 5.99978 0.888916H4.66645C4.05356 0.888916 3.55534 1.35292 3.55534 1.92358V2.66669H1.77756H1.33312C1.08867 2.66669 0.888672 2.86669 0.888672 3.11114C0.888672 3.35558 1.08867 3.55558 1.33312 3.55558H1.77756V8.44447C1.77756 9.17958 2.37578 9.7778 3.11089 9.7778H7.55534C8.29045 9.7778 8.88867 9.17958 8.88867 8.44447V3.55558H9.33312C9.57756 3.55558 9.77756 3.35558 9.77756 3.11114C9.77756 2.86669 9.57756 2.66669 9.33312 2.66669Z" fill="#EEF6FF"/>
</svg>
