<svg width="30" height="28" viewBox="0 0 30 28" fill="none" xmlns="http://www.w3.org/2000/svg">
<path fill-rule="evenodd" clip-rule="evenodd" d="M25.5 27.5C27.9853 27.5 30 25.4853 30 23V5C30 2.51472 27.9853 0.5 25.5 0.5H15H9L4.49999 0.500009C2.01471 0.500014 0 2.51473 0 5.00001V8.75V14V23C0 25.4853 2.01471 27.5 4.5 27.5L25.5 27.5ZM25.5 3.5C26.3284 3.5 27 4.17157 27 5V6.49999H3V5.00001C3 4.17158 3.67157 3.50001 4.5 3.50001L9 3.5L15 3.5L25.5 3.5ZM27 9.49999H3L3 14L3 23C3 23.8284 3.67157 24.5 4.5 24.5H25.5C26.3284 24.5 27 23.8284 27 23V9.49999ZM7.93934 12.9393C7.35355 13.5251 7.35355 14.4749 7.93934 15.0607L9.87868 17L7.93934 18.9393C7.35355 19.5251 7.35355 20.4749 7.93934 21.0607C8.52513 21.6464 9.47487 21.6464 10.0607 21.0607L13.0607 18.0607C13.6464 17.4749 13.6464 16.5251 13.0607 15.9393L10.0607 12.9393C9.47487 12.3536 8.52513 12.3536 7.93934 12.9393ZM22.5 20C22.5 19.1716 21.8284 18.5 21 18.5H16.5C15.6716 18.5 15 19.1716 15 20C15 20.8284 15.6716 21.5 16.5 21.5H21C21.8284 21.5 22.5 20.8284 22.5 20Z" fill="#2E4052"/>
</svg>
