<svg width="36" height="36" viewBox="0 0 36 36" fill="none" xmlns="http://www.w3.org/2000/svg">
<path fill-rule="evenodd" clip-rule="evenodd" d="M17.0005 15C17.0005 14.448 17.4485 14 18.0005 14C18.5525 14 19.0005 14.448 19.0005 15V19C19.0005 19.552 18.5525 20 18.0005 20C17.4485 20 17.0005 19.552 17.0005 19V15ZM17.0005 22C17.0005 21.448 17.4485 21 18.0005 21C18.5525 21 19.0005 21.448 19.0005 22C19.0005 22.552 18.5525 23 18.0005 23C17.4485 23 17.0005 22.552 17.0005 22ZM26.8652 24.353C26.6362 24.758 26.1902 25 25.6722 25H10.3282C9.81019 25 9.36419 24.758 9.13619 24.353C9.02819 24.163 8.88619 23.776 9.15319 23.336L16.8242 10.618C17.2912 9.844 18.7092 9.844 19.1762 10.618L26.8482 23.336C27.1142 23.776 26.9732 24.163 26.8652 24.353M28.5612 22.303L20.8892 9.584C20.2902 8.592 19.2102 8 18.0002 8C16.7902 8 15.7102 8.592 15.1122 9.584L7.44019 22.303C6.87119 23.246 6.85419 24.38 7.39419 25.336C7.97319 26.363 9.09819 27 10.3282 27H25.6722C26.9032 27 28.0272 26.363 28.6072 25.336C29.1472 24.38 29.1302 23.246 28.5612 22.303" fill="#2E4052"/>
</svg>
